<svg xmlns="http://www.w3.org/2000/svg" viewBox="[object SVGAnimatedRect]" width="80" height="180"><path d="M29.79 38.11l16.296-.94-7.62 12.432-8.676-11.493z" fill="#543e36" fill-rule="nonzero"></path><path d="M30.476 138.196l-15.153 2.035 1.334-6.255 14.988-1.194-1.169 5.414z" fill="#373837" fill-rule="nonzero"></path><path d="M34.922 84.823l9.195.073-2.171-6.721-6.44-.8-.584 7.448z" fill="#c19f3e" fill-rule="nonzero"></path><path d="M39.151 78.829l-14.365 19.66-.648 30.703-5.715 1.894L16.428 96.4l10.974-26.794 12.32.676 9.031-.771 5.767 14.803 5.119 44.977-5.018 1.253-12.803-51.56-2.667-.154z" fill="#5b5d5e" fill-rule="nonzero"></path><path d="M18.346 129.431l-.559 12.066 2.896 6.19 3.176-.198 1.689-5.76-1.41-13.17-5.792.872z" fill="#dbdad7" fill-rule="nonzero"></path><path d="M36.992 128.166l-2.807 19.81 2.655 19.187.152-38.997zM43 128.166l2.807 19.81-2.655 19.187L43 128.166z" fill="#c2bfbc" fill-rule="nonzero"></path><path d="M37.335 119.191l-.432-31.24 5.004.011.343 31.006-4.915.223z" fill="#ecdbb2" fill-rule="nonzero"></path><path d="M38.39 117.592l-1.576 1.636.064 58.438 1.752 2.332h2.858l1.69-2.63-.23-58.437-1.752-1.339H38.39z" fill="#292b29" fill-rule="nonzero"></path><path d="M27.39 69.653l-1.156-23.227-11.177 11.21-.267 19.822-4.94-1.153-.077-21.55L25.51 38.522l4.28-.412 8.675 11.493 7.621-12.433 3.874.202 17.274 17.885.762 22.817-4.331.065-.864-20.692-13.387-13.3-.66 25.296-5.983 2.3-15.381-2.089z" fill="#e5e2dc" fill-rule="nonzero"></path><path d="M48.156 104.214l5.59-23.286-11.09-9.185-15.266-2.198-4.84 11.7 2.3 17.305 8.37-11.59 3.76 1.112 5.08 14.554V87.86l1.905-.476 4.191 16.83z" fill="#171817" fill-rule="nonzero" opacity=".5"></path><path d="M37.106 88.05l4.497.05 10.808-3.674-.647-2.583-10.276 2.93-4.445.05-10.123-2.73-.648 2.854 10.834 3.103z" fill="#ecdbb2" fill-rule="nonzero"></path><path d="M50.557 80.965l.356 5.56L73.66 84.67l-.94-6.67-22.164 2.964zM27.91 81.523l-.368 5.56-22.735-1.854.94-6.67 22.163 2.964z" fill="#cead80" fill-rule="nonzero"></path><path d="M35.303 39.766h5.03l5.6-5.715-1.155-16.124-15.66.77.139 14.839 6.046 6.23zM9.392 78.518l1.499 4.67 7.544 1.884-.902-4.766 2.592.2-.102-1.789-10.225-2.286-.406 2.087zM68.276 81.298l-.89 1.59-7.544 1.885.889-4.767-2.579.202.102-1.788 10.415-1.193-.393 4.07z" fill="#72594b" fill-rule="nonzero"></path><path d="M47.75 137.3l17.642.2-.787-5.163-17.16-.794.305 5.758z" fill="#373837" fill-rule="nonzero"></path><path d="M59.702 129.192l3.658 11.273-2.756 4.571-3.722.299-2.73-3.996.152-11.67" fill="#dbdad7" fill-rule="nonzero"></path><path d="M24.926 24.09l-2.617 8.513 7.011-1.131-.063-5.637 8.065-2.064-.406-2.143-11.99 2.462z" fill="#292b29" fill-rule="nonzero"></path><path d="M36.395 21.981l1.651 4.258 7.342 1.794.24 3.126 7.457-.82-3.48-8.32-11.216-.42-1.994.382z" fill="#292b29" fill-rule="nonzero"></path><path d="M45.134 24.831l2.171-.235.255 4.423-2.236.114-.19-4.302zM29.397 25.966l-2.426-.197.266 4.831 2.198.116-.038-4.75z" fill="#72594b" fill-rule="nonzero"></path><path d="M26.653 23.879l12.04-2.304 8.46.254 2.998-5.3-9.044-8.953-6.732.054-12.244 12.319 4.522 3.93z" fill="#36823f" fill-rule="nonzero"></path><path d="M26.653 23.879l12.04-2.304 8.968.35 2.49-5.375-13.438-.309-14.493 3.803 4.433 3.835z" fill="#669c46" fill-rule="nonzero"></path><path d="M47.23 146.448l3.873.528-2.324-41.296-6.72-2.165-4.953.038-7.328 2.3-1.512 41.598 4.28-.854 1.931-37.756 2.756-1.303 5.005.038 2.184 1.153 2.807 37.72z" fill="#ecdbb2" fill-rule="nonzero"></path><path d="M45.59 146.236l5.83.804v1.544l-5.778 1.257-.051-3.605zM34.528 146.236l-6.287 1.146v1.501l6.236.958.05-3.605z" fill="#5b5d5e" fill-rule="nonzero"></path><path fill="#c19f3e" fill-rule="nonzero" d="M61.683 72.035h.318v.159h-.318z"></path></svg>