<svg xmlns="http://www.w3.org/2000/svg" viewBox="[object SVGAnimatedRect]" width="80" height="180"><path d="M37.604 119.773l-.381-28.934 4.331.012.292 28.693-4.242.229z" fill="#ecdbb2" fill-rule="nonzero"></path><path d="M21.016 128.161l-.546 12.066 2.896 6.19 3.175-.198 1.677-5.76-1.397-13.17-5.805.872zM59.997 129.192l3.658 11.273-2.757 4.571-3.721.299-2.73-3.996.152-11.67" fill="#dbdad7" fill-rule="nonzero"></path><path d="M37.4 86.406l3.887.05 9.361-3.738-.558-2.63-8.891 2.984-3.849.05-8.764-2.78-.559 2.908 9.374 3.156z" fill="#e8cd77" fill-rule="nonzero"></path><path d="M51.715 80.564l.305 5.654 19.687-1.88-.825-6.792-19.167 3.018zM26.071 79.645l-.305 5.659L6.08 83.419l.826-6.791 19.166 3.017z" fill="#cead80" fill-rule="nonzero"></path><path d="M37.909 88.178l-9.907 9.853-1.46 29.713-5.36.655-.636-34.374 7.151-23.993 17.896-3.196 3.226 3.097 8.206 16.269 3.048 43.15-5.398.238-5.729-34.95-6.452-6.906-4.585.444z" fill="#5b5d5e" fill-rule="nonzero"></path><path d="M27.799 70.083l-1.27-22.704-9.31 10.054.634 20.643-4.09-.107-.787-22.758L25.36 41.346l8.802-1.701 7.735-.366 8.662.902 12.168 12.595-.533 25.723-3.67-.608-.14-23.209-8.993-9.315-.508 24.764-3.328-3.295L27.8 70.083z" fill="#e5e2dc" fill-rule="nonzero"></path><path d="M34.111 39.799l8.612-.362 3.975-3.761-.99-15.148-8.23.407-7.698.38.19 14.36 4.141 4.124z" fill="#72594b" fill-rule="nonzero"></path><path d="M37.77 88.205l7.442 2.448 3.76 3.969 2.451 14.887 7.812 7.83-2.249-31.12-17.235-11.378-19.154 19.212 7.443 3.969 9.73-9.817z" fill="#171817" fill-rule="nonzero" opacity=".5"></path><path d="M29.907 23.733l-2.54 1.943-1.905 3.97 10.224 6.938 4.98-.263 12.358-5.15-3.265-5.654-3.848-3.489-16.004 1.705z" fill="#292b29" fill-rule="nonzero"></path><path d="M28.269 24.474l12.447.86 8.434-2.945 3.429-4.216L41.224 7.22l-4.966.292L23.67 20.475l4.598 4z" fill="#669c46" fill-rule="nonzero"></path><path d="M10.08 76.175l-.762 4.395 10.403.96-.763-4.246-8.878-1.109zM56.796 77.886l-.508 3.672 9.323.296.28-4.162-9.095.194z" fill="#72594b" fill-rule="nonzero"></path><path d="M52.731 18.173l-3.111 7.07-8.853 2.41-12.74-1.477-4.356-5.701 16.778.419 12.282-2.72z" fill="#36823f" fill-rule="nonzero"></path><path d="M36.969 128.166l-2.807 19.81 2.655 19.187.152-38.997zM42.977 128.166l2.807 19.81-2.655 19.187-.152-38.997z" fill="#c2bfbc" fill-rule="nonzero"></path><path d="M38.366 117.592l-1.575 1.636.064 58.438 1.752 2.332h2.858l1.69-2.63-.229-58.437-1.753-1.339h-2.807z" fill="#292b29" fill-rule="nonzero"></path><path d="M47.206 146.448l3.874.528-2.311-41.296-6.732-2.165-4.954.038-7.328 2.3-1.512 41.598 4.28-.854 1.931-37.756 2.756-1.303 5.005.038 2.184 1.153 2.807 37.72z" fill="#ecdbb2" fill-rule="nonzero"></path><path d="M45.568 146.236l5.83.804v1.544l-5.78 1.257-.05-3.605zM34.505 146.236l-6.275 1.146v1.501l6.224.958.05-3.605z" fill="#5b5d5e" fill-rule="nonzero"></path><path d="M28.548 138.196l-15.153 2.035 1.347-6.255 14.11-1.184-.304 5.404zM50.585 137.3l17.642.2-.787-5.163-17.16-.794.305 5.758z" fill="#373837" fill-rule="nonzero"></path><path d="M41.681 99.753l-4.445-4.485v-4.406l4.318.08.127 8.811z" fill="#171817" fill-rule="nonzero" opacity=".5"></path><path d="M30.885 90.913l17.795.011-1.766-5.168-14.01-.05-2.019 5.207z" fill="#c19f3e" fill-rule="nonzero"></path><path d="M36.258 106.966l-.991 5.61h8.612l-.699-5.61h-6.922z" fill="#af1f25" fill-rule="nonzero"></path></svg>