<svg xmlns="http://www.w3.org/2000/svg" viewBox="[object SVGAnimatedRect]" width="360" height="320"><path d="M302.282 69.623l27.149-1.409.268 9.933 5.37-.804-.029-16.842-33.024 3.487.266 5.635z" fill="#292b29" fill-rule="nonzero"></path><path d="M339.097 76.537l-1.074 41.083-19.064 2.686-3.491-40.009 23.629-3.76z" fill="#292b29" fill-rule="nonzero"></path><path d="M339.097 76.671l-.268 9.532-22.825.133-.536-6.04 23.629-3.625z" fill="#5b5d5e" fill-rule="nonzero" opacity=".3"></path><path d="M57.72 69.623l-27.148-1.409-.268 9.933-5.37-.804.028-16.842 33.025 3.487-.267 5.635z" fill="#292b29" fill-rule="nonzero"></path><path d="M20.905 76.537l1.075 41.083 19.063 2.686 3.492-40.009-23.63-3.76z" fill="#292b29" fill-rule="nonzero"></path><path d="M57.803 295.3l2.146 24.7h24.703l5.103-24.97-31.952.27z" fill="#5b5d5e" fill-rule="nonzero"></path><path d="M83.58 294.76L84.651 320l7.646-25.24H83.58z" fill="#292b29" fill-rule="nonzero"></path><path d="M272.79 320h24.703l2.149-24.702-31.954-.268L272.79 320z" fill="#5b5d5e" fill-rule="nonzero"></path><path d="M265.145 295.03l7.646 24.701 1.073-24.7h-8.719z" fill="#292b29" fill-rule="nonzero"></path><path d="M57.637 295.282h242.207l9.129-235.755-257.231 2.148 5.895 233.607z" fill="#e5e2dc" fill-rule="nonzero"></path><path d="M51.527 62.861V36.009l32.776-20.407h202.179l22.805 20.404-.582 26.74-257.178.115z" fill="#e5e2dc" fill-rule="nonzero"></path><path d="M77.57 30.385l.053 31.343 208.444-.466-.407-30.586-208.09-.291z" fill="#292b29" fill-rule="nonzero"></path><path d="M58.807 72.302l2.418 128.058 236.26-.53 4.568-126.189-243.246-1.339z" fill="#313156" fill-rule="nonzero"></path><path d="M297.127 199.62L283.114 74.037 149.87 200.136l147.257-.516zM58.807 72.302l1.764 90.35 89.855-89.777-91.619-.573z" fill="#091724" fill-rule="nonzero" opacity=".3"></path><path d="M83.97 37.026l.036 10.504 10.337.135.034 8.726 3.859-.034-.002-19.3h-3.991l-.032 6.715h-6.513v-6.714l-3.728-.032z" fill="#f09d74" fill-rule="nonzero"></path><path d="M20.905 76.671l.27 9.532 22.824.133.536-6.04-23.63-3.625z" fill="#5b5d5e" fill-rule="nonzero" opacity=".3"></path><path d="M157.332 200.171L283.78 73.536h-7.593L149.579 200.144l7.753.027z" fill="#494a73" fill-rule="nonzero"></path><path d="M178.287 200.36h6.175l1.073-127.798-6.987-.006-.26 127.804z" fill="#dbdad7" fill-rule="nonzero"></path><path d="M130.823 263.99l3.972 11.94-23.738.046 3.864-12.039 15.902.052z" fill="#c2bfbc" fill-rule="nonzero"></path><path d="M107.851 275.923l3.971-11.941-23.738-.046 3.865 12.039 15.902-.052zM264.177 275.923l3.972-11.941-23.738-.046 3.864 12.039 15.902-.052z" fill="#f8f4e3" fill-rule="nonzero"></path><path d="M241.205 263.99l3.971 11.94-23.738.046 3.865-12.039 15.902.052z" fill="#c2bfbc" fill-rule="nonzero"></path><path d="M300.951 263.75l-.415 12.18-23.74.045 3.865-12.039 20.29-.185zM76.735 263.777l3.971 11.941-23.738.046-.287-12.013 20.054.026z" fill="#f09d74" fill-rule="nonzero"></path></svg>