<svg xmlns="http://www.w3.org/2000/svg" viewBox="[object SVGAnimatedRect]" width="360" height="320"><path d="M303.588 69.62l27.148-1.41.268 9.936 5.37-.807-.03-16.839-33.026 3.482.27 5.638z" fill="#292b29" fill-rule="nonzero"></path><path d="M340.402 76.534l-1.075 41.085-19.064 2.683-3.49-40.007 23.63-3.76z" fill="#292b29" fill-rule="nonzero"></path><path d="M335.336 114.1l-10.826 1.54-2.964-31.506 14.213-2.42-.423 32.385z" fill="#f5f5ef" fill-rule="nonzero"></path><path d="M56.413 69.62l-27.149-1.41-.266 9.936-5.371-.807.028-16.839 33.027 3.482-.27 5.638z" fill="#292b29" fill-rule="nonzero"></path><path d="M19.597 76.534l1.076 41.085 19.063 2.683 3.491-40.007-23.63-3.76z" fill="#292b29" fill-rule="nonzero"></path><path d="M58.117 295.028L60.264 320h24.704l5.102-25.241-31.953.268z" fill="#5b5d5e" fill-rule="nonzero"></path><path d="M83.895 294.76l1.073 24.702 7.643-24.702h-8.716z" fill="#292b29" fill-rule="nonzero"></path><path d="M273.207 319.733l24.702.268 2.15-24.705-31.952-.268 5.1 24.705z" fill="#5b5d5e" fill-rule="nonzero"></path><path d="M265.461 295.028L273.104 320l1.076-24.973h-8.719z" fill="#292b29" fill-rule="nonzero"></path><path d="M57.952 295.278h242.21l9.128-235.753L52.058 61.67l5.894 233.607z" fill="#e5e2dc" fill-rule="nonzero"></path><path d="M51.843 62.857V36.003L84.62 15.6H286.8l22.805 20.404-.583 26.741-257.178.113z" fill="#e5e2dc" fill-rule="nonzero"></path><path d="M94.254 152.833l2.955-81.07 169.708.53 2.954 80.277-175.617.263z" fill="#292b29" fill-rule="nonzero"></path><path d="M206.163 168.736l3.971 11.941-23.738.046 3.865-12.039 15.902.052zM170.913 168.736l3.972 11.941-23.739.046 3.865-12.039 15.902.052z" fill="#f09d74" fill-rule="nonzero"></path><path d="M24.81 114.524l10.858 1.475 2.583-31.85-13.547-2.329.105 32.704zM153.008 243.927l-.268 24.336h56.387l.002-24.334-56.12-.002z" fill="#f5f5ef" fill-rule="nonzero"></path><path d="M292.894 259.923c0 4.595-3.729 8.325-8.324 8.325a8.325 8.325 0 01-8.324-8.325 8.323 8.323 0 018.324-8.325 8.325 8.325 0 018.324 8.325" fill="#c2bfbc" fill-rule="nonzero"></path><path d="M292.894 238.977a8.324 8.324 0 11-16.648 0 8.323 8.323 0 018.324-8.325 8.325 8.325 0 018.324 8.325" fill="#af1f25" fill-rule="nonzero"></path><path d="M292.894 217.492a8.324 8.324 0 11-16.648 0 8.325 8.325 0 0116.648 0" fill="#f09d74" fill-rule="nonzero"></path><path d="M83.203 259.923a8.326 8.326 0 01-8.324 8.325c-4.595 0-8.322-3.73-8.322-8.325a8.324 8.324 0 1116.646 0" fill="#c2bfbc" fill-rule="nonzero"></path><path d="M83.203 238.977a8.324 8.324 0 11-16.646 0 8.324 8.324 0 1116.646 0" fill="#af1f25" fill-rule="nonzero"></path><path d="M83.203 217.492a8.324 8.324 0 11-8.324-8.324 8.323 8.323 0 018.324 8.324" fill="#f09d74" fill-rule="nonzero"></path><path d="M112.651 132.835l-5.656 5.424 151.395-.133-5.61-5.291H112.65zM112.651 110.612l-5.656 5.424 151.395-.133-5.61-5.291H112.65zM112.651 86.69l-5.656 5.425 151.395-.133-5.61-5.291H112.65z" fill="#5b5d5e" fill-rule="nonzero"></path></svg>