<svg width="360" height="180" viewBox="0 0 360 180" fill="none" xmlns="http://www.w3.org/2000/svg">
<path d="M250.572 75.855L267.909 72.744L271.465 63.5L252.084 60.119L250.484 68.655L247.537 71.625L250.572 75.855V75.855Z" fill="#E4E2DC"/>
<path d="M250.591 75.86L247.636 71.423L250.506 68.648L252.116 60.143L253.764 60.407L262.173 73.745L250.591 75.861V75.86Z" fill="#C1BEBB"/>
<path d="M88.5339 63.38L92.0899 72.625L109.427 75.736L112.462 71.506L109.515 68.536L107.915 60.001L88.5349 63.381L88.5339 63.38Z" fill="#E4E2DC"/>
<path d="M109.447 75.734L112.403 71.296L109.533 68.521L107.923 60.016L106.275 60.28L97.8411 73.655L109.447 75.734V75.734Z" fill="#C1BEBB"/>
<path d="M93.4751 155.194L95.6081 180H120.146L125.214 154.928L93.4741 155.194H93.4751Z" fill="#5C5E5F"/>
<path d="M119.08 154.928L120.147 180L127.757 154.928H119.08V154.928Z" fill="#2A2B2A"/>
<path d="M237.579 180H262.154L264.287 155.462L232.546 155.194L237.579 180Z" fill="#5C5E5F"/>
<path d="M230.005 155.194L237.579 180L238.683 155.194H230.005V155.194Z" fill="#2A2B2A"/>
<path d="M125.959 28.728L90.249 99.633L93.448 155.124L95.848 155.134L264.298 155.728L269.118 99.976L234.187 28.728H125.959V28.728Z" fill="#E4E2DC"/>
<path d="M130.391 33.925L110.542 72.051H247.607L230.246 33.925H130.391V33.925Z" fill="#313156"/>
<path d="M130.436 33.926L110.542 72.05H146.07L184.057 33.926H130.437H130.436Z" fill="#0F2342" fill-opacity="0.3"/>
<path d="M230.298 33.926H225.655L187.277 72.05H247.607L230.298 33.925V33.926Z" fill="#0A1723" fill-opacity="0.3"/>
<path d="M187.964 72.05L225.654 33.926H215.128L178.152 72.051H187.964V72.05Z" fill="#494A72"/>
<path d="M90.249 100.626L91.349 119.041L127.061 119.005L128.396 100.576L90.249 100.626V100.626Z" fill="#F6F1E1"/>
<path d="M128.397 100.576L138.012 116.869L127.062 119.005L128.397 100.576Z" fill="#EF9C74"/>
<path d="M269.065 100.626L267.461 118.988L232.734 119.005L231.398 100.576L269.065 100.626V100.626Z" fill="#F6F1E1"/>
<path d="M231.398 100.576L224.009 116.869L232.734 119.005L231.398 100.576V100.576Z" fill="#EF9C74"/>
<path d="M231.356 100.627L128.41 100.573L138.067 116.868H224.065L231.356 100.628V100.627Z" fill="#2A2B2A"/>
<path d="M224.155 105.8L221.709 110.799L140.381 110.869L137.089 105.443L224.155 105.8V105.8Z" fill="#5C5E5F"/>
<path d="M268.791 100.631L267.051 118.993L232.494 119.011L231.161 100.581L268.791 100.631V100.631Z" fill="#F6F1E1"/>
<path d="M268.842 100.616L267.077 119.044L232.533 118.992L233.066 125.85L275.84 126.584L278.38 94.577L230.818 94.439L231.199 100.596L268.842 100.616V100.616Z" fill="#FFEECC" fill-opacity="0.7"/>
<path d="M278.278 94.577L275.827 126.604L233.041 125.87L233.485 132.418L282.418 133.899L286.431 89.073L230.386 88.829L230.793 94.439L278.278 94.577V94.577Z" fill="#FFEECC" fill-opacity="0.3"/>
</svg>
