<svg width="360" height="180" viewBox="0 0 360 180" fill="none" xmlns="http://www.w3.org/2000/svg">
<path d="M250.656 75.855L267.993 72.744L271.549 63.5L252.167 60.119L250.568 68.655L247.621 71.625L250.656 75.855V75.855Z" fill="#E4E2DC"/>
<path d="M250.675 75.86L247.72 71.423L250.589 68.648L252.2 60.143L253.847 60.407L262.257 73.745L250.675 75.861V75.86Z" fill="#C1BEBB"/>
<path d="M254.856 63.141L253.611 72.211L265.824 70.751L267.729 65.566L254.856 63.141V63.141Z" fill="#2A2B2A"/>
<path d="M88.618 63.38L92.174 72.625L109.511 75.736L112.546 71.506L109.598 68.536L107.998 60.001L88.618 63.381V63.38Z" fill="#E4E2DC"/>
<path d="M109.531 75.734L112.486 71.296L109.617 68.521L108.006 60.016L106.359 60.28L97.924 73.655L109.531 75.734V75.734Z" fill="#C1BEBB"/>
<path d="M105.312 63.023L106.557 72.093L94.344 70.633L92.439 65.448L105.312 63.023V63.023Z" fill="#2A2B2A"/>
<path d="M93.558 155.194L95.692 180H120.229L125.298 154.928L93.558 155.194V155.194Z" fill="#5C5E5F"/>
<path d="M119.164 154.928L120.23 180L127.84 154.928H119.163H119.164Z" fill="#2A2B2A"/>
<path d="M237.663 180H262.237L264.371 155.462L232.63 155.194L237.663 180Z" fill="#5C5E5F"/>
<path d="M230.088 155.194L237.663 180L238.766 155.194H230.088V155.194Z" fill="#2A2B2A"/>
<path d="M126.042 28.728L90.332 99.633L93.532 155.124L95.932 155.134L264.381 155.728L269.201 99.976L234.271 28.728H126.041H126.042Z" fill="#E4E2DC"/>
<path d="M90.326 100.383L91.3861 118.905L114.896 118.908L116.091 100.49L90.326 100.383V100.383Z" fill="#AE2025"/>
<path d="M121.488 100.437L130.43 113.721L124.772 119.016L114.903 118.882L116.243 100.514L121.488 100.437V100.437Z" fill="#F6F1E1"/>
<path d="M269.2 100.436L267.614 118.852L244.524 118.908L243.19 100.504L269.2 100.436Z" fill="#AE2025"/>
<path d="M238.104 100.503L230.474 113.771L236.083 118.906L244.548 118.851L243.173 100.488L238.104 100.503V100.503Z" fill="#F6F1E1"/>
<path d="M133.015 36.466L114.435 78.4H243.88L227.79 36.466H133.015V36.466Z" fill="#313156"/>
<path d="M144.457 151.994C144.457 153.691 143.782 155.319 142.582 156.52C141.382 157.72 139.755 158.395 138.057 158.396C136.359 158.396 134.731 157.721 133.53 156.521C132.329 155.32 131.655 153.692 131.654 151.994C131.675 150.31 132.359 148.702 133.557 147.519C134.755 146.336 136.371 145.672 138.056 145.672C139.74 145.672 141.356 146.336 142.554 147.519C143.752 148.702 144.436 150.31 144.457 151.994" fill="#2A2B2A"/>
<path d="M130.429 113.617L124.772 119.041L236.029 118.908L230.419 113.617H130.429V113.617Z" fill="#C1BEBB"/>
<path d="M158.849 128.381L154.993 141.901H199.96L196.149 128.547L158.849 128.381V128.381Z" fill="#F4F2ED"/>
<path d="M133.008 36.466L114.435 78.4H139.804L181.602 36.466H133.008V36.466Z" fill="#0F2342" fill-opacity="0.3"/>
<path d="M227.835 36.466H223.2L181.01 78.4H243.88L227.835 36.465V36.466Z" fill="#0A1723" fill-opacity="0.3"/>
<path d="M181.697 78.4L223.198 36.465H212.673L171.887 78.4H181.697Z" fill="#494A72"/>
<path d="M90.319 100.536L91.378 119.058L114.888 119.06L116.083 100.643L90.319 100.536V100.536Z" fill="#AE2025"/>
<path d="M90.373 100.532L91.413 119.039L114.9 119.067L114.365 125.865L83.11 126.508L80.838 94.493H116.462L116.085 100.652L90.373 100.532V100.532Z" fill="#AD2126" fill-opacity="0.35"/>
<path d="M80.815 94.492L83.091 126.506L114.258 125.864L113.808 132.643L74.693 134.119L71.464 87.877L116.864 87.771L116.467 94.492H80.815V94.492Z" fill="#AD2126" fill-opacity="0.2"/>
</svg>
