<svg width="360" height="180" viewBox="0 0 360 180" fill="none" xmlns="http://www.w3.org/2000/svg">
<path d="M250.62 75.855L267.956 72.744L271.512 63.5L252.13 60.119L250.531 68.655L247.584 71.625L250.619 75.855H250.62Z" fill="#E4E2DC"/>
<path d="M250.638 75.86L247.683 71.423L250.552 68.648L252.163 60.143L253.811 60.407L262.219 73.745L250.639 75.861L250.638 75.86Z" fill="#C1BEBB"/>
<path d="M254.819 63.141L253.574 72.211L265.787 70.751L267.692 65.566L254.819 63.141V63.141Z" fill="#2A2B2A"/>
<path d="M88.581 63.38L92.137 72.625L109.474 75.736L112.509 71.506L109.561 68.536L107.961 60.001L88.581 63.381V63.38Z" fill="#E4E2DC"/>
<path d="M109.494 75.734L112.449 71.296L109.58 68.521L107.969 60.016L106.322 60.28L97.888 73.655L109.494 75.734V75.734Z" fill="#C1BEBB"/>
<path d="M105.275 63.023L106.52 72.093L94.307 70.633L92.402 65.448L105.275 63.023V63.023Z" fill="#2A2B2A"/>
<path d="M93.521 155.194L95.655 180H120.193L125.261 154.928L93.521 155.194Z" fill="#5C5E5F"/>
<path d="M119.127 154.928L120.194 180L127.804 154.928H119.127V154.928Z" fill="#2A2B2A"/>
<path d="M237.626 180H262.2L264.334 155.462L232.593 155.194L237.626 180Z" fill="#5C5E5F"/>
<path d="M230.051 155.194L237.626 180L238.729 155.194H230.051V155.194Z" fill="#2A2B2A"/>
<path d="M126.005 28.728L90.295 99.633L93.495 155.124L95.895 155.134L264.344 155.728L269.164 99.976L234.234 28.728H126.005V28.728Z" fill="#E4E2DC"/>
<path d="M90.29 100.383L91.348 118.905L114.858 118.908L116.054 100.49L90.289 100.383H90.29Z" fill="#AE2025"/>
<path d="M121.451 100.437L130.393 113.721L124.735 119.016L114.866 118.882L116.206 100.514L121.451 100.437V100.437Z" fill="#F6F1E1"/>
<path d="M269.164 100.436L267.577 118.852L244.487 118.908L243.153 100.504L269.163 100.436H269.164Z" fill="#AE2025"/>
<path d="M238.068 100.503L230.436 113.771L236.046 118.906L244.512 118.851L243.136 100.488L238.068 100.503Z" fill="#F6F1E1"/>
<path d="M132.978 36.466L114.398 78.4H243.844L227.753 36.466H132.978V36.466Z" fill="#313156"/>
<path d="M144.42 151.994C144.42 153.691 143.745 155.319 142.545 156.52C141.345 157.72 139.717 158.395 138.02 158.396C136.322 158.395 134.694 157.721 133.494 156.52C132.293 155.32 131.619 153.692 131.618 151.994C131.639 150.31 132.323 148.702 133.521 147.519C134.719 146.336 136.335 145.672 138.019 145.672C139.704 145.672 141.32 146.336 142.518 147.519C143.716 148.702 144.4 150.31 144.421 151.994" fill="#2A2B2A"/>
<path d="M130.392 113.617L124.735 119.041L235.992 118.908L230.382 113.617H130.392V113.617Z" fill="#C1BEBB"/>
<path d="M158.812 128.381L154.956 141.901H199.923L196.112 128.547L158.812 128.381V128.381Z" fill="#F4F2ED"/>
<path d="M132.972 36.466L114.398 78.4H139.767L181.565 36.466H132.972V36.466Z" fill="#0F2342" fill-opacity="0.3"/>
<path d="M227.798 36.466H223.162L180.974 78.4H243.844L227.798 36.465V36.466Z" fill="#0A1723" fill-opacity="0.3"/>
<path d="M181.66 78.4L223.161 36.465H212.636L171.85 78.4H181.66Z" fill="#494A72"/>
<path d="M269.103 100.495L267.517 118.912L244.577 118.919L243.092 100.564L269.102 100.495H269.103Z" fill="#AE2025"/>
<path d="M269.104 100.484L267.496 118.919H244.677L245.153 125.772L275.251 126.415L278.794 94.401H242.912L243.289 100.559L269.104 100.484V100.484Z" fill="#AD2126" fill-opacity="0.35"/>
<path d="M278.836 94.4L275.29 126.414L245.156 125.771L245.606 132.551L283.689 134.026L288.187 87.784L242.531 87.679L242.928 94.399H278.836V94.4Z" fill="#AD2126" fill-opacity="0.2"/>
</svg>
