<svg width="360" height="180" viewBox="0 0 360 180" fill="none" xmlns="http://www.w3.org/2000/svg">
<path d="M250.619 75.855L267.956 72.743L271.512 63.499L252.13 60.119L250.531 68.654L247.584 71.624L250.619 75.854V75.855Z" fill="#E4E2DC"/>
<path d="M250.638 75.86L247.683 71.423L250.552 68.648L252.163 60.143L253.811 60.407L262.219 73.744L250.639 75.86H250.638Z" fill="#C1BEBB"/>
<path d="M254.819 63.141L253.574 72.21L265.787 70.75L267.692 65.565L254.819 63.141V63.141Z" fill="#2A2B2A"/>
<path d="M88.5811 63.38L92.1371 72.624L109.474 75.736L112.509 71.506L109.561 68.535L107.961 60L88.5811 63.38V63.38Z" fill="#E4E2DC"/>
<path d="M109.494 75.733L112.449 71.296L109.58 68.521L107.969 60.016L106.322 60.28L97.8879 73.654L109.494 75.733V75.733Z" fill="#C1BEBB"/>
<path d="M105.275 63.023L106.52 72.092L94.307 70.632L92.402 65.447L105.275 63.023V63.023Z" fill="#2A2B2A"/>
<path d="M93.521 155.194L95.655 180H120.193L125.261 154.927L93.521 155.194Z" fill="#5C5E5F"/>
<path d="M119.127 154.927L120.194 180L127.804 154.927H119.127V154.927Z" fill="#2A2B2A"/>
<path d="M237.626 180H262.2L264.334 155.462L232.593 155.194L237.626 180Z" fill="#5C5E5F"/>
<path d="M230.051 155.194L237.626 180L238.729 155.194H230.051V155.194Z" fill="#2A2B2A"/>
<path d="M126.005 28.727L90.295 99.633L93.495 155.124L95.895 155.133L264.344 155.728L269.164 99.976L234.234 28.727H126.004H126.005Z" fill="#E4E2DC"/>
<path d="M90.2901 100.383L91.3481 118.905L114.858 118.907L116.054 100.49L90.2891 100.383H90.2901Z" fill="#AE2025"/>
<path d="M121.451 100.436L130.393 113.721L124.735 119.015L114.866 118.882L116.206 100.514L121.451 100.436V100.436Z" fill="#F6F1E1"/>
<path d="M269.164 100.435L267.577 118.851L244.487 118.907L243.153 100.504L269.163 100.435H269.164Z" fill="#AE2025"/>
<path d="M238.068 100.502L230.436 113.77L236.046 118.906L244.512 118.85L243.136 100.487L238.068 100.502Z" fill="#F6F1E1"/>
<path d="M132.978 36.465L114.398 78.4H243.844L227.753 36.465H132.978V36.465Z" fill="#313156"/>
<path d="M144.42 151.993C144.42 153.691 143.746 155.319 142.546 156.52C141.345 157.72 139.718 158.395 138.02 158.396C136.322 158.396 134.693 157.721 133.493 156.52C132.292 155.32 131.617 153.691 131.617 151.993C131.638 150.309 132.322 148.701 133.52 147.518C134.718 146.335 136.334 145.671 138.018 145.671C139.702 145.671 141.319 146.335 142.517 147.518C143.715 148.701 144.399 150.309 144.42 151.993" fill="#2A2B2A"/>
<path d="M130.392 113.616L124.735 119.041L235.992 118.907L230.382 113.617H130.392V113.616Z" fill="#C1BEBB"/>
<path d="M158.812 128.381L154.956 141.901H199.923L196.112 128.546L158.812 128.381V128.381Z" fill="#F4F2ED"/>
<path d="M132.971 36.465L114.398 78.4H139.767L181.565 36.466H132.97L132.971 36.465Z" fill="#0F2342" fill-opacity="0.3"/>
<path d="M227.798 36.465H223.162L180.974 78.401H243.844L227.798 36.465V36.465Z" fill="#0A1723" fill-opacity="0.3"/>
<path d="M181.66 78.4L223.161 36.464H212.636L171.85 78.4H181.66Z" fill="#494A72"/>
</svg>
