<svg xmlns="http://www.w3.org/2000/svg" viewBox="[object SVGAnimatedRect]" width="120" height="460"><path d="M51.375 460H67.99L65.57 103.479l-11.772-3.39L51.375 460z" fill="#5c5e5f" fill-rule="nonzero"></path><path d="M51.375 460H67.99L52.25 330.844 51.375 460zM65.084 194.91L55.07 100.088l10.501.227-.487 94.595z" fill="#2a2b2a" fill-rule="nonzero"></path><g><path d="M48.835 100.273L34.918 56.458l19.367-12.86-2.39-11.054 8.11-7.791 8.145 7.593-2.594 11.57 19.527 12.436-15.452 44.132" fill="#5c5e5f" fill-rule="nonzero"></path><path d="M85.083 56.775H44.536l21.02-12.541 19.527 12.541z" fill="#2a2b2a" fill-rule="nonzero"></path><g><path d="M44.536 59.315l8.155 36.195h13.554l9.35-36.195H44.537z" fill="#f6f1e1" fill-rule="nonzero"></path><path d="M44.536 59.118l4.626 20.466L67.326 59.1l-22.79.02zM52.691 95.51l-.844-3.894 21.637-24.324-7.24 28.218H52.692z" fill="#ecdbb1" fill-rule="nonzero"></path></g></g></svg>