<svg xmlns="http://www.w3.org/2000/svg" viewBox="[object SVGAnimatedRect]" width="300" height="500"><path d="M235.677 499.999h-14.544l-.013-31.324 16.716.268-2.16 31.056zM64.316 499.681H78.86l.025-28.148-16.716.268 2.147 27.88z" fill="#282928" fill-opacity=".99" fill-rule="nonzero"></path><path d="M95.118 19.097l42.018 82.985h6.668l-41.916-82.985M200.962 19.097l-42.017 82.985h-6.669l41.916-82.985" fill="#292b29" fill-opacity=".99" fill-rule="nonzero"></path><path d="M45.492 442.41l.05 31.347 208.463-.466-.406-30.59-208.107-.291z" fill="#5c5f60" fill-opacity=".99" fill-rule="nonzero"></path><path d="M115.619 99.369l-5.653 27.018 75.195-.134-5.614-25.614-63.928-1.27z" fill="#5b5d5e" fill-opacity=".99" fill-rule="nonzero"></path><path d="M27.01 460.623h242.237l-3.569-320.908-17.744-18.84-198.136.03-15.98 21.892-6.807 317.826z" fill="#e5e2dc" fill-opacity=".99" fill-rule="nonzero"></path><g transform="matrix(1.27018 0 0 1.27018 -1619.745 -472.044)"><path d="M1323.06 492.468l-2.1 176.83 13.47 13.961 116-.338 13.56-14.04-.4-175.359-140.53-1.054z" fill="#313156" fill-rule="nonzero"></path><clipPath id="ica"><path d="M1323.06 492.468l-2.1 176.83 13.47 13.961 116-.338 13.56-14.04-.4-175.359-140.53-1.054z" clip-rule="nonzero"></path></clipPath><g clip-path="url(#ica)" fill-rule="nonzero"><path d="M1466.29 686.245l.03-102.011-100 95.488-1.25 6.55 101.22-.027zM1425.14 518.991l-106.43 106.082.07-106.078 106.36-.004z" fill="#0c1825" fill-opacity=".3"></path><path d="M1361.94 683.179l6.21-.018 95.65-95.99-.01-5.982-101.85 101.99z" fill="#494b72" fill-opacity=".99"></path><path d="M1323.33 492.713l-.45 26.429 140.87-.367-.07-25.083-140.35-.979z" fill="#292b29" fill-opacity=".99"></path></g></g><path d="M71.518 167.799v-3.64l10.606.093.19-3.486-14.518.285.038 10.506 10.327.133.025 5.333-10.034.312-.114 3.084 14.022-.035v-12.315" fill="#f09d74" fill-opacity=".99" fill-rule="nonzero"></path><path d="M218.338 411.98l3.976-11.942-23.752-.046 3.874 12.04 15.902-.052zM95.969 411.98l3.963-11.942-23.74-.046 3.874 12.04 15.903-.052z" fill="#c1bebb" fill-opacity=".99" fill-rule="nonzero"></path><path d="M27.71 425.488l-.903 37.698 242.44-.466-.406-36.94-241.132-.292z" fill="#89bb6a" fill-opacity=".99" fill-rule="nonzero"></path><path d="M56.67 399.701l-3.976 11.942 23.74.046-3.862-12.041-15.903.053zM241.265 399.714l3.976 11.942-23.74.046 3.862-12.04 15.902.052z" fill="#af1f25" fill-opacity=".99" fill-rule="nonzero"></path><path d="M194.078 21.74l38.5.318 6.934 15.014 6.644-.804-10.187-20.653H60.429L50.242 36.268l6.63.804 6.936-15.014 30.89-.318" fill="#292b29" fill-opacity=".99" fill-rule="nonzero"></path></svg>