<svg xmlns="http://www.w3.org/2000/svg" viewBox="[object SVGAnimatedRect]" width="300" height="500"><path d="M235.69 500.003h-14.543l-.012-31.324 16.715.268-2.16 31.056zM64.327 499.686H78.87l.026-28.149-16.716.268 2.147 27.88z" fill="#282928" fill-rule="nonzero"></path><path d="M95.132 19.1l42.018 82.984h6.668L101.902 19.1M200.977 19.1l-42.018 82.984h-6.669L194.206 19.1" fill="#292b29" fill-rule="nonzero"></path><path d="M45.505 442.414l.051 31.347 208.464-.466-.407-30.59-208.108-.291z" fill="#5c5f60" fill-rule="nonzero"></path><path d="M115.633 99.371l-5.653 27.019 75.195-.134-5.614-25.615-63.928-1.27z" fill="#5b5d5e" fill-rule="nonzero"></path><path d="M27.024 460.627h242.238l-3.57-320.91-17.744-18.84-198.137.03L33.832 142.8l-6.808 317.827z" fill="#e5e2dc" fill-rule="nonzero"></path><path d="M60.798 153.484l-2.667 224.608 17.11 17.733 147.342-.43 17.223-17.833-.508-222.74-178.5-1.338z" fill="#313156" fill-rule="nonzero"></path><path d="M61.141 153.795l-.571 33.57 178.931-.466-.088-31.86-178.272-1.244z" fill="#292b29" fill-rule="nonzero"></path><path d="M71.532 167.802v-3.64l10.606.093.19-3.487-14.518.286.038 10.506 10.327.133.025 5.333-10.034.312-.115 3.084 14.023-.035v-12.315" fill="#f09d74" fill-rule="nonzero"></path><path d="M218.353 411.984l3.975-11.942-23.752-.046 3.874 12.04 15.903-.052zM95.983 411.984l3.963-11.942-23.74-.046 3.874 12.04 15.903-.052z" fill="#f8f4e3" fill-rule="nonzero"></path><path d="M27.723 425.493l-.902 37.698 242.441-.467-.406-36.94-241.133-.291z" fill="#89bb6a" fill-rule="nonzero"></path><path d="M56.683 399.705l-3.976 11.943 23.74.045-3.861-12.041-15.903.053zM241.28 399.718l3.975 11.942-23.74.046 3.862-12.04 15.903.052z" fill="#c1bebb" fill-rule="nonzero"></path><path d="M194.092 21.742l38.5.318 6.935 15.015 6.643-.804-10.187-20.653H60.443L50.256 36.27l6.63.804 6.935-15.015 30.892-.318" fill="#292b29" fill-rule="nonzero"></path><g transform="translate(-1284.409 -472.044) scale(1.27019)"><path d="M1056.96 669.297l13.46 13.961 116.01-.337 13.56-14.041-.4-175.359-140.53-1.052-2.1 176.828z" fill="none"></path><clipPath id="iba"><path d="M1056.96 669.297l13.46 13.961 116.01-.337 13.56-14.041-.4-175.359-140.53-1.052-2.1 176.828z"></path></clipPath><g clip-path="url(#iba)"><path d="M1161.14 518.991l-106.43 106.082.07-106.078 106.36-.004zM1202.29 686.245l.03-102.011-100 95.488-1.25 6.55 101.22-.027z" fill="#0c1825" fill-rule="nonzero" opacity=".3"></path></g></g><path d="M110.183 395.723l7.888-.023 121.494-121.925-.013-7.599-129.369 129.547z" fill="#494b72" fill-rule="nonzero"></path></svg>