<svg xmlns="http://www.w3.org/2000/svg" viewBox="[object SVGAnimatedRect]" width="120" height="30"><path d="M0 30l.033-10.148 6.879-1.73 4.336 2.77 1.607-4.158 4.98 1.04 1.607-4.158L28.72 17l1.928.346L49 13.616s11.08 8.15 11.885 8.497c.803.347 27.308-4.157 27.308-4.157l5.3-4.34 12.045 5.379 14.49 3.127-.027 7.877h-120z" fill="#679a45" fill-rule="nonzero"></path><path d="M8.74 27.995l5.142-7.447 8.472 7.534-13.614-.087zM32.674 27.995l3.653-4.156h2.41l6.388-3.38 1.563 3.898 16.627-1.3 6.625 4.678-37.266.26zM86.327 27.473l.962-2.423 6.907-1.041 2.01-2.597 16.381 6.322-26.26-.26z" fill="#35813f" fill-rule="nonzero"></path></svg>