<svg width="1960" height="220" viewBox="0 0 1960 220" fill="none" xmlns="http://www.w3.org/2000/svg">
<path d="M31.992 113.74L30.675 120.748L32.488 129.697L35.755 127.863L34.82 120.167L35.036 122.5L38.074 121.745L35.51 116.045L31.992 113.739V113.74Z" fill="#E1C5B5"/>
<path d="M41.81 76.173L47.903 73.775L61.143 73.259L58.635 62.677L42.521 62.382L41.81 76.172V76.173Z" fill="#543E36"/>
<path d="M59.224 194.643L60.308 202.511L52.638 202.314L52.048 193.858L59.224 194.643ZM46.788 205.215L45.214 215.587L46.099 218.095H52.145L53.693 206.664L46.788 205.214V205.215Z" fill="#2A2B2A"/>
<path d="M43.003 73.702L46.246 71.54L48.604 64.853L54.055 66.406L55.784 70.656L59.52 72.523L57.16 80.29L46.05 80.586L43.003 73.702Z" fill="#CEAB97"/>
<path d="M48.49 69.6179H53.397L58.683 62.8219L57.738 48.2859L48.311 46.7109L42.451 49.0409L42.641 62.8219L48.491 69.6179H48.49ZM40.988 83.8529L35.573 116.567L31.7 115.113L36.53 78.2009L40.988 83.8529Z" fill="#E1C5B5"/>
<path d="M49.909 42.412L60.808 45.852L66.786 75.325L60.625 81.888L60.701 74.808L60.308 72.718L58.414 63.156L56.045 51.09L49.565 48.445L49.909 42.412V42.412Z" fill="#543E36"/>
<path d="M49.675 48.4451L43.297 50.8411L42.55 79.0301L37.155 78.0791L38.212 47.7031L50.066 42.3051L49.676 48.4451H49.675Z" fill="#543E36"/>
<path d="M52.246 147.055L53.426 206.64L46.836 205.264L41.036 146.858" fill="#E1C5B5"/>
<path d="M52.047 126.012L52.246 151.182L53.18 194.153L59.224 194.643L62.176 150.913L52.047 126.013V126.012Z" fill="#CEAB97"/>
<path d="M66.797 75.471L59.557 72.484L56.669 79.6L46.443 79.896L43.003 73.554L36.413 78.079L40.838 83.927L41.388 102.207L32.234 163.368L70.14 163.663L61.39 102.843L63.06 80.781L66.797 75.471V75.471Z" fill="#5C5E5F"/>
<path d="M63.11 80.737L64.652 115.366L68.828 115.064L66.842 75.538L63.11 80.737V80.737Z" fill="#E1C5B5"/>
<path d="M68.84 114.942L69.215 120.447L65.497 128.25L62.449 126.443L65.153 119.45L64.698 121.748L62.131 119.67L64.718 115.446L68.841 114.942H68.84Z" fill="#E1C5B5"/>
<path d="M94.257 109.914L90.784 106.701L94.494 103.945L97.877 109.906L94.257 109.914V109.914Z" fill="#AE2025"/>
<path d="M102.458 113.871L97.811 109.887L89.758 109.849L83.938 115.602L85.363 134.269L89.177 133.782L89.661 132.891L92.276 131.825L96.95 132.502L99.476 133.88L102.703 133.686L102.458 113.871V113.871Z" fill="#2A2B2A"/>
<path d="M88.526 129.656L90.664 128.231L92.219 123.827L95.808 124.85L96.947 127.648L99.407 128.878L100.064 142.682L94.05 152.614L88.526 129.656V129.656Z" fill="#CEAB97"/>
<path d="M92.141 126.966H95.375L98.857 122.489L97.374 113.221L92.024 113.194L88.164 117.328L88.288 122.489L92.141 126.966V126.966Z" fill="#E1C5B5"/>
<path d="M97.87 116.893L100.146 116.906L100.316 120.615L98.143 120.502L97.87 116.892V116.893ZM88.493 117.374L86.44 117.388L86.52 121.158L88.414 121.143L88.493 117.373V117.374Z" fill="#E1C5B5"/>
<path d="M89.264 202.323L88.507 207.827L93.871 207.69L94.285 201.773L89.264 202.323ZM97.964 209.718L99.065 216.975L98.445 218.73H94.215L93.132 210.733L97.964 209.718V209.718Z" fill="#2A2B2A"/>
<path d="M108.402 158.57L109.333 163.528L108.052 169.862L105.739 168.564L106.401 163.117L106.247 164.769L104.098 164.234L105.912 160.201L108.402 158.571V158.57Z" fill="#E1C5B5"/>
<path d="M102.036 137.425L105.868 160.572L108.608 159.542L105.191 133.425L102.036 137.425V137.425ZM80.267 156.824L79.336 161.782L80.617 168.115L82.93 166.817L82.268 161.37L82.422 163.023L84.571 162.488L82.757 158.455L80.267 156.824V156.824Z" fill="#E1C5B5"/>
<path d="M86.633 135.678L82.801 158.825L80.061 157.797L83.479 131.679L86.633 135.679V135.678ZM94.145 169.029L93.321 210.715L97.93 209.752L101.99 168.89" fill="#E1C5B5"/>
<path d="M94.285 154.307L94.147 171.917L93.493 201.979L89.263 202.323L87.2 171.729L94.285 154.307V154.307Z" fill="#CEAB97"/>
<path d="M83.514 131.612L88.663 129.487L90.715 134.547L97.751 134.512L99.258 128.878L105.117 133.465L101.97 137.621L100.309 150.619L104.274 191.383L83.682 191.593L88.63 151.068L86.172 135.386L83.514 131.612ZM100.452 112.207L105.269 111.9L104.157 107.412L97.757 109.867" fill="#AE2025"/>
<path d="M227.63 32.755L222.313 33.628L220.883 21.563L226.758 13.943L234.456 15.769L242.633 11.563L246.76 20.451L255.331 23.945L251.442 34.819L246.362 33.549" fill="#2A2B2A"/>
<path d="M181.511 150.705L186.541 152.477L211.832 107.057L207.019 104.391L181.511 150.705V150.705Z" fill="#C1BEBA"/>
<path d="M227.107 193.992L225.909 202.718L234.414 202.499L235.07 193.122L227.107 193.992V193.992ZM233.24 207.324L234.96 220H241.665L242.646 217.219L240.898 205.716L233.241 207.324H233.24Z" fill="#2A2B2A"/>
<path d="M245.1 53.5099L241.5 51.1099L238.883 43.6949L232.843 45.4179L230.924 50.1279L226.782 52.2009L235.802 66.7579L245.1 53.5089V53.5099Z" fill="#AA8B7E"/>
<path d="M239.013 48.98H233.57L227.707 41.443L228.754 25.322L230.992 23.465L242.069 23.575L245.709 26.159L245.499 41.443L239.013 48.981V48.98Z" fill="#CEAB97"/>
<path d="M228.362 31.984L224.778 32.044L224.494 38.287L228.151 38.097L228.361 31.984H228.362ZM245.237 32.834L248.854 33.818L248.57 39.053L245.372 39.177L245.237 32.834Z" fill="#CEAB97"/>
<path d="M221.187 105.104L227.107 193.99H233.977L235.503 117.97L231.954 154.75L233.324 207.404L240.846 205.768L244.775 155.061L249.897 105.757L221.187 105.104V105.104Z" fill="#5C5E5F"/>
<path d="M234.81 117.845L231.357 157.351L232.986 194L226.233 181.212L222.961 129.534L234.811 117.844L234.81 117.845Z" fill="#171817" fill-opacity="0.5"/>
<path d="M259.178 99.972L262.161 107.298L261.587 117.448L258.218 116.155L257.531 107.585L257.811 110.168L254.762 110.304L255.871 103.257L259.178 99.972V99.972ZM206.603 98.05L204.347 103.738L204.547 113.108L208.228 112.624L208.975 104.057L208.679 106.639L211.848 107.075L210.785 99.972L206.603 98.05V98.05Z" fill="#CEAB97"/>
<path d="M226.615 52.037L218.71 55.473L206.218 99.053L210.778 99.986L222.851 61.36L221.108 105.102L249.896 105.757L247.496 64.852L255.785 103.357L259.984 101.504L252.514 57.872L245.099 53.344L234.468 52.712L226.614 52.037H226.615Z" fill="#EF9C74"/>
<path d="M227.094 193.985L233.028 193.965L231.341 155.765L232.312 148.562L224.057 147.927L227.094 193.985V193.985Z" fill="#AA8B7E"/>
<path d="M232.114 148.542L231.321 155.824L233.265 207.418L240.872 205.765L245.412 148.66L232.114 148.542V148.542Z" fill="#CEAB97"/>
<path d="M209.19 172.563L208.528 213.848L201.683 213.837L201.128 183.78L209.19 172.563Z" fill="#2A2B2A"/>
<path d="M201.278 192.088L208.779 200.819L208.547 213.924L201.556 213.928L201.278 192.088V192.088Z" fill="#CEAD80"/>
<path d="M182.432 185.883L182.93 213.924H190.61L190.495 187.051L182.432 185.883V185.883Z" fill="#2A2B2A"/>
<path d="M165.023 144.054L170.866 220H178.188L179.124 189.62H188.16L189.56 220H197.272L199.375 191.022L209.188 172.563L202.645 151.533L187.923 143.587L165.023 144.054V144.054Z" fill="#CEAD80"/>
<path d="M188.04 143.585L188.275 169.408L178.569 179.121L166.821 167.493L164.906 144.053L188.04 143.585V143.585Z" fill="#F6F1E1"/>
<path d="M165.286 134.209L157.838 122.739L160.592 117.449L171.362 123.459L165.286 134.209ZM187.428 134.413L195.516 122.103L192.236 117.66L181.643 123.489L187.428 134.413Z" fill="#2A2B2A"/>
<path d="M181.848 123.49L190.728 140.781L179.482 151.896L172.656 151.818L161.702 140.864L171.215 123.49H181.848V123.49Z" fill="#CEAD80"/>
<path d="M182.18 139.038L179.482 151.896L172.656 151.818L169.798 139.196L182.181 139.038H182.18Z" fill="#2A2B2A"/>
<path d="M368.418 99.754L369.726 106.763L367.923 115.711L364.646 113.878L365.586 106.181L365.37 108.514L362.335 107.76L364.887 102.059L368.418 99.754V99.754Z" fill="#E1C5B5"/>
<path d="M341.177 195.913L340.097 203.781L347.767 203.584L348.352 195.128L341.177 195.913V195.913ZM346.714 207.934L348.264 219.365H354.308L355.185 216.857L353.61 206.486L346.714 207.934V207.934Z" fill="#2A2B2A"/>
<path d="M359.414 69.868L364.837 102.582L368.697 101.128L363.871 64.215L359.414 69.868V69.868ZM348.162 133.07L346.98 207.91L353.559 206.534L359.363 132.873" fill="#E1C5B5"/>
<path d="M348.352 112.027L348.162 137.197L347.222 195.423L341.177 195.913L338.23 136.928L348.352 112.028V112.027Z" fill="#CEAB97"/>
<path d="M337.29 66.752L335.754 101.381L331.575 101.078L333.557 61.552L337.29 66.752V66.752Z" fill="#E1C5B5"/>
<path d="M331.563 100.958L331.194 106.463L334.903 114.266L337.951 112.459L335.258 105.466L335.703 107.764L338.268 105.686L335.69 101.462L331.563 100.958V100.958Z" fill="#E1C5B5"/>
<path d="M333.607 61.486L340.847 58.499L343.729 65.616L353.965 65.912L357.395 59.569L363.985 64.094L359.566 69.942L359.02 88.222L368.164 160.819L330.267 161.114L339.017 88.857L337.341 66.797L333.607 61.487V61.486Z" fill="#FFEECC"/>
<path d="M363.198 80.39L359.44 32.82L348.696 28.475L348.709 28.321L336.847 33.719L335.157 79.969L340.555 84.096L358.627 84.731L363.199 80.391L363.198 80.39Z" fill="#543E36"/>
<path d="M468.17 84.745L475.829 118.373L480.782 116.099L471.663 76.49L468.171 84.745H468.17Z" fill="#72594B"/>
<path d="M479.994 115.882L486.09 117.27L487.119 124.057L476.857 124.877L476.807 117.381L477.226 119.685L472.488 120.505L472.082 116L479.994 115.882V115.882Z" fill="#72594B"/>
<path d="M526.68 192.722L527.873 201.448L515.554 201.229L514.894 191.852L526.679 192.722H526.68ZM505.255 204.446L503.515 215.95L504.493 218.73H515.008L516.723 206.054L505.255 204.446Z" fill="#2A2B2A"/>
<path d="M504.873 58.59L506.512 56.19L509.128 48.775L518.653 50.665L520.571 55.376L523.187 57.281L514.17 71.838L504.873 58.589V58.59Z" fill="#CEAB97"/>
<path d="M510.957 54.06H516.392L522.26 46.523L521.218 30.402L510.754 28.655L504.264 31.239L504.467 46.523L510.957 54.061V54.06Z" fill="#E1C5B5"/>
<path d="M507.591 28.9289L508.137 26.7469L525.689 28.4449L527.149 40.9239L521.714 41.2509L517.459 32.5809L509.559 31.4369L507.591 28.9289V28.9289Z" fill="#E4E2DC"/>
<path d="M521.612 37.064L525.193 37.124L525.473 43.367L521.815 43.177L521.612 37.064V37.064Z" fill="#E1C5B5"/>
<path d="M509.61 31.435L505.191 33.235L504.378 41.086L497.952 41.904L498.689 31.564L508.214 26.801L509.611 31.435H509.61Z" fill="#E4E2DC"/>
<path d="M504.734 37.9141L501.114 38.8981L501.394 44.1331L504.594 44.2571L504.734 37.9141Z" fill="#E1C5B5"/>
<path d="M540.218 114.637L526.679 192.72H515.986L514.462 119.876L518.018 153.48L516.646 206.134L505.306 204.498L500.111 153.791L491.171 114.59L520.926 111.494L540.218 114.637V114.637Z" fill="#5C5E5F"/>
<path d="M515.16 119.75L520.444 155.178L516.977 192.732L528.699 181.158L535.798 140.202L515.161 119.75H515.16Z" fill="#171817" fill-opacity="0.5"/>
<path d="M478.305 108.968L475.321 116.293L475.892 126.443L482.852 124.416L483.538 115.846L483.258 118.429L486.306 118.565L485.201 111.518L478.305 108.968V108.968ZM551.038 109.857L553.286 115.545L553.096 124.915L546.466 124.431L545.716 115.864L546.009 118.446L542.847 118.883L543.901 111.779L551.038 109.857Z" fill="#E1C5B5"/>
<path d="M523.352 57.1169L536.344 60.5529L551.457 110.927L543.787 111.691L530.934 70.2539L540.307 114.634L491.17 114.59L498.65 73.7459L485.277 111.618L478.013 109.765L493.634 62.9519L504.874 58.4239L515.504 69.2219L523.352 57.1169V57.1169Z" fill="#313156"/>
<path d="M442.936 77.232L449.032 74.834L462.265 74.318L459.763 63.737L443.647 63.441L442.936 77.231V77.232Z" fill="#E4E2DC"/>
<path d="M444.13 74.762L447.368 72.599L449.73 65.912L455.178 67.465L456.906 71.715L460.639 73.582L458.277 81.349L447.177 81.645L444.129 74.762H444.13Z" fill="#553F37"/>
<path d="M461.617 195.702L462.697 203.57L453.756 203.373L453.172 194.918L461.617 195.702V195.702Z" fill="#2A2B2A"/>
<path d="M453.362 148.114L454.543 207.699L445.413 206.323L439.608 147.917" fill="#72594B"/>
<path d="M453.172 127.072L453.362 152.242L454.302 195.212L461.617 195.702L464.564 151.972L453.172 127.072V127.072Z" fill="#553F37"/>
<path d="M471.726 76.5299L460.677 73.5439L457.795 80.6589L447.558 80.9549L444.129 74.6129L433.715 79.1379L439.075 88.0269L438.694 103.267L433.36 189.5L471.257 189.796L466.329 103.902L467.218 87.6039L471.726 76.5309V76.5299Z" fill="#669944"/>
<path d="M443.9 216.646L447.216 219.154H453.261L454.811 207.723L445.476 206.273L443.901 216.646H443.9Z" fill="#2A2B2A"/>
<path d="M449.616 70.677H454.518L459.801 63.881L458.861 49.345L449.438 47.77L443.571 50.1L443.761 63.881L449.616 70.677V70.677ZM427.962 114.934L426.705 121.807L428.521 130.757L431.785 128.923L430.845 121.226L431.061 123.56L434.109 122.804L432.877 117.581L427.962 114.934V114.934Z" fill="#72594B"/>
<path d="M439.075 87.867L432.877 117.627L427.734 116.172L433.754 79.295L439.074 87.867H439.075Z" fill="#72594B"/>
<path d="M451.026 43.4709L461.935 46.9109L467.904 76.3849L461.744 82.9469L461.821 75.8669L461.427 73.7769L459.534 64.2149L457.172 52.1489L450.682 49.5039L451.026 43.4709V43.4709Z" fill="#E4E2DC"/>
<path d="M450.797 49.504L444.422 51.9L443.672 80.09L438.275 79.138L439.329 48.762L451.191 43.365L450.797 49.504V49.504Z" fill="#E4E2DC"/>
<path d="M620.37 194.49L619.17 203.067L626.458 202.883L626.2 193.866L620.37 194.491V194.49ZM626.502 207.593L628.213 220H634.945L635.907 217.319L634.159 206.013L626.502 207.593Z" fill="#553F37"/>
<path d="M638.363 72.836L634.763 70.48L632.145 63.193L626.104 64.885L624.184 69.514L620.044 71.551L629.065 85.856L638.363 72.836V72.836Z" fill="#CDAA97"/>
<path d="M632.275 68.3849H626.833L620.968 60.9789L622.016 45.7589L631.838 43.4189L638.336 45.9589L638.762 60.9789L632.275 68.3849V68.3849Z" fill="#CDAA97"/>
<path d="M621.622 51.683L618.039 51.742L617.756 57.877L621.411 57.691L621.621 51.683H621.622ZM638.5 52.519L642.117 53.486L641.834 58.63L638.636 58.752L638.5 52.519V52.519Z" fill="#CDAA97"/>
<path d="M614.33 125.49L620.37 198.305H627.24L628.764 141.965L625.214 159.742L626.584 207.673L634.107 206.064L638.037 160.048L643.158 126.148L614.329 125.49H614.33Z" fill="#C1BEBA"/>
<path d="M628.073 138.025L624.619 162.298L626.247 194.503L619.495 185.746L616.631 152.849L628.073 138.025V138.025Z" fill="#171818" fill-opacity="0.25"/>
<path d="M652.687 115.602L655.671 122.801L655.098 132.775L651.728 131.505L651.041 123.084L651.32 125.621L648.273 125.755L649.075 118.658L652.687 115.602V115.602ZM606.584 115.724L604.328 121.314L604.528 130.524L608.211 130.044L608.957 121.628L608.663 124.165L611.83 124.595L610.876 117.507L606.584 115.724V115.724Z" fill="#CDAA97"/>
<path d="M648.025 87.596L642.117 89.669L649.047 118.702L653.245 116.882L648.025 87.596ZM615.12 87.596L609.75 86.541L606.31 116.776L610.888 117.525L615.119 87.596H615.12Z" fill="#CDAA97"/>
<path d="M619.877 71.391L610.7 75.391L606.817 106.867L613.059 108.16L616.114 80.551L614.37 125.503L643.158 126.147L640.759 83.983L646.679 111.105L652.589 109.034L645.779 77.124L638.363 72.674L628.366 77.67L619.876 71.391H619.877Z" fill="#AE1F25"/>
<path d="M636.788 63.514L631.005 77.76H627.332L622.944 63.587L623.956 63.104L627.44 65.06H631.142L635.635 63.174L636.788 63.514Z" fill="#E4E2DC"/>
<path d="M778.276 69.276L774.682 66.877L772.065 59.462L766.02 61.185L764.102 65.895L759.962 67.968L768.738 87.126L778.276 69.276V69.276ZM788.423 115.01L789.731 122.018L787.928 130.967L784.651 129.133L785.591 121.437L785.375 123.77L782.34 123.015L784.892 117.315L788.423 115.009V115.01Z" fill="#72594B"/>
<path d="M761.181 195.913L760.102 203.781L767.772 203.584L768.357 195.128L761.181 195.913V195.913ZM766.719 207.934L768.269 219.365H774.313L775.19 216.857L773.615 206.486L766.719 207.934V207.934Z" fill="#AE1F25"/>
<path d="M779.419 78.773L784.842 117.837L788.702 116.383L783.876 73.121L779.419 78.773V78.773ZM768.167 148.325L766.985 207.91L773.564 206.534L779.368 148.128" fill="#72594B"/>
<path d="M768.357 127.282L768.167 152.452L767.227 195.423L761.181 195.913L758.235 152.183L768.357 127.283V127.282Z" fill="#553F37"/>
<path d="M757.295 75.657L755.759 116.636L751.58 116.334L753.561 70.457L757.295 75.657Z" fill="#72594B"/>
<path d="M751.568 116.212L751.199 121.717L754.908 129.52L757.956 127.713L755.263 120.72L755.708 123.018L758.273 120.94L755.695 116.716L751.568 116.212Z" fill="#72594B"/>
<path d="M753.612 70.3911L760.852 67.4041L763.734 74.5201L773.97 74.8161L777.4 68.4741L783.99 72.9991L779.571 78.8471L779.025 103.477L788.169 160.818L750.272 161.114L759.022 104.112L757.346 75.7021L753.612 70.3921V70.3911Z" fill="#669944"/>
<path d="M780.028 60.72L777.54 41.724L768.7 37.379L768.714 37.225L760.027 42.623L758.337 60.299L760.56 64.425L777.045 65.06L780.029 60.72H780.028Z" fill="#2A2B2A"/>
<path d="M922.052 193.357L923.246 202.083L912.197 201.864L911.549 192.487L922.052 193.357ZM901.428 216.585L902.405 219.365H911.651L913.366 206.689L903.167 205.081L901.427 216.585H901.428Z" fill="#CEAB97"/>
<path d="M901.516 59.224L905.111 56.825L907.727 49.41L913.772 51.133L915.69 55.843L919.83 57.916L910.813 72.473L901.516 59.224V59.224Z" fill="#72594B"/>
<path d="M907.6 54.696H913.035L918.903 47.158L917.861 31.037L907.397 29.29L900.907 31.874L901.11 47.158L907.6 54.696Z" fill="#CEAB97"/>
<path d="M904.234 29.564L904.78 27.382L922.332 29.08L923.792 41.559L918.357 41.886L914.102 33.216L906.202 32.072L904.234 29.564V29.564Z" fill="#2A2B2A"/>
<path d="M918.255 37.7L921.836 37.759L922.116 44.002L918.458 43.812L918.255 37.699V37.7Z" fill="#CEAB97"/>
<path d="M906.254 32.07L901.834 33.87L901.021 41.721L894.608 42.539L895.344 32.199L904.869 27.436L906.254 32.07Z" fill="#2A2B2A"/>
<path d="M901.377 38.549L897.757 39.533L898.037 44.768L901.237 44.8919L901.377 38.549V38.549Z" fill="#CEAB97"/>
<path d="M927.97 107.644L922.052 193.355H912.642L911.105 120.511L914.661 154.115L913.289 206.769L903.219 205.133L899.294 154.426L894.176 108.297L927.971 107.644H927.97Z" fill="#C1BEBA"/>
<path d="M912.057 119.194L915.257 156.716L913.632 193.366L922.675 184.176L926.116 133.244L912.057 119.194V119.194Z" fill="#171817" fill-opacity="0.25"/>
<path d="M884.892 102.512L881.908 109.838L882.479 119.988L885.857 118.695L886.543 110.125L886.263 112.708L889.312 112.844L888.207 105.797L884.892 102.512ZM935.832 102.865L938.092 108.554L937.889 117.924L934.206 117.44L933.456 108.872L933.749 111.454L930.587 111.891L931.653 104.788L935.832 102.865V102.865Z" fill="#CEAB97"/>
<path d="M919.995 57.752L930.447 61.188L936.111 103.935L931.527 104.698L926.307 67.075L928.047 107.642L894.176 108.297L896.576 70.567L888.283 105.897L884.079 104.044L891.559 63.587L901.516 59.059L912.146 69.857L919.995 57.752V57.752Z" fill="#EF9B75"/>
<path d="M1075.31 166.406L1070.28 168.179L1051.22 121.542L1056.04 118.876L1075.31 166.406V166.406Z" fill="#C1BEBA"/>
<path d="M1012.04 115.644L1010.73 122.654L1012.54 131.602L1015.81 129.768L1014.87 122.072L1015.09 124.405L1018.13 123.65L1015.56 117.95L1012.04 115.644Z" fill="#E1C5B5"/>
<path d="M1021.86 74.264L1027.96 71.866L1041.2 71.35L1038.69 60.769L1022.57 60.473L1021.86 74.263L1021.86 74.264Z" fill="#543E36"/>
<path d="M1039.28 196.548L1040.36 204.416L1032.69 204.219L1032.1 195.763L1039.28 196.548ZM1025.27 217.492L1026.15 220H1032.2L1033.74 208.569L1026.84 207.119L1025.27 217.492H1025.27Z" fill="#988A74"/>
<path d="M1023.06 71.794L1026.3 69.631L1028.66 62.944L1034.11 64.497L1035.84 68.747L1039.57 70.614L1037.21 78.381L1026.1 78.677L1023.06 71.794V71.794Z" fill="#CEAB97"/>
<path d="M1028.54 67.71H1033.45L1038.73 60.913L1037.79 46.377L1028.36 44.802L1022.5 47.132L1022.69 60.913L1028.54 67.709L1028.54 67.71ZM1021.04 81.945L1015.62 118.472L1011.75 117.018L1016.58 76.292L1021.04 81.945V81.945Z" fill="#E1C5B5"/>
<path d="M1029.96 40.5031L1040.86 43.9431L1046.85 73.6251L1040.68 79.979L1040.75 72.8991L1040.36 70.8091L1038.46 61.2471L1036.1 49.1811L1029.62 46.5361L1029.96 40.5031V40.5031Z" fill="#543E36"/>
<path d="M1029.73 46.536L1023.35 48.932L1022.6 77.122L1017.21 76.17L1018.26 45.794L1030.12 40.397L1029.73 46.536H1029.73Z" fill="#543E36"/>
<path d="M1032.3 148.96L1033.48 208.545L1026.89 207.169L1021.09 148.763" fill="#E1C5B5"/>
<path d="M1032.1 127.917L1032.3 153.087L1033.23 196.058L1039.28 196.548L1042.23 152.818L1032.1 127.918V127.917Z" fill="#CEAB97"/>
<path d="M1046.85 73.5631L1039.61 70.576L1036.72 77.6911L1026.5 77.9871L1023.06 71.6451L1016.47 76.1701L1020.89 82.0181L1022.71 104.112L1012.29 155.103L1050.19 155.399L1040.17 104.747L1043.11 78.8731L1046.85 73.5631H1046.85Z" fill="#FFEECC"/>
<path d="M1043.81 77.886L1052.76 116.826L1056.79 115.681L1046.79 73.574L1043.81 77.886V77.886Z" fill="#E1C5B5"/>
<path d="M1056.78 115.559L1062.58 124.189L1060.1 128.931L1057.29 121.973L1054.08 120.724L1053.15 126.241L1050.22 124.73L1052.8 116.773L1056.78 115.559Z" fill="#E1C5B5"/>
<path d="M1052.86 187.774L1053.31 215.82L1057.96 215.813L1058.34 195.393L1052.86 187.773V187.774Z" fill="#2A2B2A"/>
<path d="M1055.64 191.823L1055.32 204.681L1053.16 206.784L1053.3 215.873H1058.08L1058.39 193.835L1055.64 191.823V191.823ZM1071.04 196.823L1070.7 215.873H1065.48L1065.56 197.616L1071.04 196.823Z" fill="#F4F2ED"/>
<path d="M1057.31 173.486L1052.86 187.774L1059.53 200.315L1060.96 220H1066.2L1067.15 199.36H1073.29L1073.92 220H1078.89L1082.86 168.405L1067.31 168.087L1057.31 173.487L1057.31 173.486Z" fill="#2A2B2A"/>
<path d="M1067.23 168.089L1067.03 185.075L1074.61 192.615L1081.56 185.908L1082.94 168.406L1067.23 168.089V168.089Z" fill="#F4F2ED"/>
<path d="M1082.69 161.718L1084.96 158.104L1089.27 159.139L1087.73 154.416H1078.56L1082.69 161.718V161.718ZM1068.02 162.136L1065.17 158.126L1060.86 159.159L1062.51 154.477L1071.57 154.437L1068.02 162.137V162.136Z" fill="#2A2B2A"/>
<path d="M1071.43 154.436L1065.32 166.541L1072.46 173.725H1078.97L1085.8 166.819L1078.66 154.436H1071.43V154.436Z" fill="#2A2B2A"/>
<path d="M1228.89 203.767L1229.73 208.931L1224.68 208.924L1224.16 203.363L1228.89 203.767V203.767Z" fill="#FFEECC"/>
<path d="M1229.6 98.0861L1224.75 94.1801L1218.1 94.4761L1216.81 94.3691L1211.1 98.9541L1213 118.886L1216.81 118.31L1217.27 117.407L1219.86 116.277L1224.55 116.844L1227.1 118.161L1230.33 117.888L1229.6 98.0861V98.0861Z" fill="#553F37"/>
<path d="M1216.05 114.2L1218.16 112.724L1219.61 108.284L1223.23 109.222L1224.43 111.992L1226.92 113.162L1227.9 126.946L1222.27 143.375L1216.05 114.2V114.2Z" fill="#735A4C"/>
<path d="M1219.61 111.425L1222.85 111.348L1226.21 106.788L1225.4 98.548L1219.16 97.661L1215.34 99.288L1215.64 107.042L1219.61 111.425V111.425Z" fill="#AA8B7E"/>
<path d="M1225.23 101.19L1227.37 101.175L1227.62 104.878L1225.45 104.818L1225.23 101.19ZM1215.73 101.923L1213.6 102.559L1213.84 105.663L1215.73 105.693V101.923Z" fill="#AA8B7E"/>
<path d="M1231.1 148.969L1228.89 203.766L1224.81 203.865L1222.78 156.814L1225.46 180.532L1226.67 211.789L1219.63 210.987L1217.84 180.899L1214.06 149.765L1231.1 148.969Z" fill="#AE2025"/>
<path d="M1223.19 156.729L1225.84 182.068L1226.35 202.132L1229.23 196.166L1230.39 163.504L1223.19 156.729V156.729Z" fill="#720E1A"/>
<path d="M1204.24 122.925L1201.41 120.083L1195.74 117.971L1195.64 120.111L1200.14 122.534L1195.24 121.257L1194.84 125.307L1201.9 126.577L1204.24 122.925H1204.24ZM1235.7 146.019L1237.12 149.364L1237.13 154.933L1234.95 154.697L1234.38 149.619L1234.59 151.149L1232.71 151.453L1233.25 147.22L1235.7 146.019V146.019Z" fill="#AA8B7E"/>
<path d="M1227.01 113.063L1232.74 115.168L1236.87 146.828L1233.17 147.168L1229.37 118.546L1231.14 148.968L1214.06 149.765L1214.71 123.161L1211.71 116.898L1216.05 114.102L1218.3 116.566L1224.97 116.512L1227.01 113.063V113.063Z" fill="#C1BEBA"/>
<path d="M1211.75 116.932L1209.13 130.069L1204.22 122.925L1201.83 126.496L1208.74 137.185L1211.8 137.131L1214.87 123.002" fill="#C1BEBA"/>
<path d="M1159.09 78.078L1165.19 75.68L1178.43 75.164L1175.92 64.582L1159.8 64.287L1159.09 78.077V78.078Z" fill="#E4E2DC"/>
<path d="M1160.29 75.6071L1163.54 73.4451L1165.89 66.7581L1171.35 68.3111L1173.08 72.5611L1176.81 74.4281L1174.45 82.1951L1163.33 82.4911L1160.29 75.6071V75.6071Z" fill="#CEAB97"/>
<path d="M1177.79 196.548L1178.87 204.416L1169.93 204.219L1169.33 195.763L1177.79 196.548Z" fill="#2A2B2A"/>
<path d="M1169.53 148.96L1170.71 208.545L1161.58 207.169L1155.78 148.763" fill="#E1C5B5"/>
<path d="M1169.33 127.917L1169.53 153.087L1170.47 196.058L1177.79 196.548L1180.73 152.818L1169.33 127.918V127.917Z" fill="#CEAB97"/>
<path d="M1187.9 77.376L1176.85 74.389L1173.95 81.505L1163.73 81.801L1160.29 75.459L1149.88 79.984L1155.23 88.872L1154.86 104.112L1149.52 165.273L1187.43 165.568L1182.5 104.748L1183.39 88.45L1187.9 77.376V77.376Z" fill="#49799E"/>
<path d="M1184.12 86.4131L1195.25 116.696L1200.42 114.942L1187.87 77.4041L1184.12 86.4131V86.4131Z" fill="#E1C5B5"/>
<path d="M1200.39 114.82L1202.23 120.023L1200.75 128.537L1197.33 127.617L1198.06 120.155L1198.23 122.489L1195.2 121.177L1195.26 116.654L1200.39 114.82V114.82Z" fill="#E1C5B5"/>
<path d="M1160.07 217.492L1163.38 220H1169.43L1170.98 208.569L1161.64 207.119L1160.07 217.492V217.492Z" fill="#2A2B2A"/>
<path d="M1165.77 71.523H1170.69L1175.97 64.727L1175.03 50.191L1165.59 48.616L1159.74 50.946L1159.93 64.727L1165.77 71.523ZM1144.12 115.78L1142.87 122.653L1144.69 131.603L1147.95 129.769L1147.01 122.072L1147.23 124.406L1150.27 123.65L1149.05 118.427L1144.12 115.78V115.78Z" fill="#E1C5B5"/>
<path d="M1155.16 88.396L1149.05 118.472L1143.89 117.018L1149.92 80.141L1155.16 88.396V88.396Z" fill="#E1C5B5"/>
<path d="M1167.2 44.317L1178.09 47.757L1184.07 77.23L1177.91 83.793L1177.99 76.713L1177.6 74.623L1175.7 65.061L1173.33 52.995L1166.85 50.35L1167.2 44.317V44.317Z" fill="#E4E2DC"/>
<path d="M1166.97 50.35L1160.58 52.746L1159.84 80.935L1154.44 79.984L1155.5 49.608L1167.35 44.21L1166.97 50.35V50.35Z" fill="#E4E2DC"/>
<path d="M1218.73 217.732L1220.62 219.417L1224.6 219.324L1225.47 211.441L1219.59 210.876L1218.73 217.732Z" fill="#FFEECC"/>
<path d="M1324.13 70.458L1321.9 88.238L1313.65 93.848L1315.24 70.988L1324.13 70.458ZM1352.7 74.79L1357.44 95.381L1366.54 91.415L1359.43 71.463L1352.7 74.789L1352.7 74.79Z" fill="#5C5E5F"/>
<path d="M1368.28 45.74L1366.98 39.646L1361.62 35.686L1360.69 34.797L1353.36 34.762L1342.29 51.447L1345.61 53.391L1346.53 52.981L1349.26 53.734L1352.54 57.125L1353.7 59.76L1356.37 61.578L1368.28 45.739V45.74Z" fill="#2A2B2A"/>
<path d="M1347.61 49.726L1350.17 49.904L1354.1 47.368L1356.31 50.37L1355.51 53.28L1356.7 55.759L1348.79 67.089L1334.08 76.311L1347.61 49.726V49.726Z" fill="#735A4C"/>
<path d="M1352.12 49.806L1354.68 51.782L1360.17 50.364L1364.73 43.447L1360.44 38.831L1356.45 37.689L1351.8 43.909L1352.12 49.806V49.806Z" fill="#AA8B7E"/>
<path d="M1362.94 45.402L1364.6 46.73L1362.47 49.77L1360.82 48.353L1362.94 45.402ZM1355.09 39.983L1353.03 39.134L1351.27 41.698L1352.73 42.918L1355.09 39.983Z" fill="#AA8B7E"/>
<path d="M1356.84 55.7419L1362.21 57.2819L1343.24 88.1769L1340.15 86.1129L1355.23 61.4899L1337.45 86.2349L1323.67 76.0969L1339.39 55.1099L1342.54 49.0859L1347.67 49.6479L1347.86 52.9749L1353.08 57.1319L1356.84 55.7409L1356.84 55.7419Z" fill="#F6F1E1"/>
<path d="M1349.93 192.722L1351.14 201.448L1338.82 201.229L1338.16 191.852L1349.93 192.722ZM1328.52 204.446L1326.77 215.95L1327.75 218.73H1338.27L1339.99 206.054L1328.52 204.446Z" fill="#C1BEBA"/>
<path d="M1328.7 60.921L1331.59 50.623L1341.28 51.209L1343.82 55.619L1346.67 57.152L1339.7 72.793L1328.7 60.921V60.921Z" fill="#553F37"/>
<path d="M1334.12 55.611L1339.51 54.876L1344.31 46.617L1341.09 30.784L1330.49 30.465L1324.41 33.902L1326.68 49.019L1334.12 55.611V55.611Z" fill="#72594B"/>
<path d="M1342.38 37.332L1345.93 36.908L1347.06 43.056L1343.42 43.361L1342.38 37.332V37.332ZM1325.78 40.452L1322.32 41.916L1323.31 47.066L1326.49 46.756L1325.78 40.452H1325.78Z" fill="#72594B"/>
<path d="M1362.21 114.637L1349.93 192.72H1339.25L1337.73 119.876L1341.27 153.48L1339.91 206.134L1328.57 204.498L1323.36 153.791L1316.98 114.59L1344.19 111.494L1362.21 114.637V114.637Z" fill="#313156"/>
<path d="M1338.41 119.75L1343.71 155.178L1340.24 192.732L1351.48 181.365L1358.32 139.514L1338.41 119.75V119.75Z" fill="#0A1723" fill-opacity="0.3"/>
<path d="M1306.97 102.088L1321.43 106.282L1321.74 100.747L1313.69 97.729L1316.09 98.707L1317.07 95.817L1310.7 95.342L1306.97 102.088Z" fill="#72594B"/>
<path d="M1346.62 57.1169L1359.61 60.5529L1372.07 86.6499L1367.94 106.018L1360.21 103.18L1364.75 89.3199L1354.19 70.2539L1362.29 114.634L1316.98 114.59L1319.85 71.0929L1301.27 83.6329L1310.79 95.3279L1306.98 102.102L1287.93 82.3639L1316.9 62.9519L1328.13 58.4239L1338.76 69.2219L1346.62 57.1169H1346.62Z" fill="#C1BEBA"/>
<path d="M1332.39 65.0871L1336.41 67.1471L1343.28 67.6741L1343.19 64.9441L1336.97 63.7811L1338.83 64.1801L1339.39 61.8941L1335.2 61.7841L1332.39 65.0871V65.0871Z" fill="#AA8B7E"/>
<path d="M1330.01 51.99L1319.45 58.63L1320.29 61.583L1332.52 65.098L1335.25 61.783L1329.27 58.949L1330.98 52.811L1330.01 51.991V51.99Z" fill="#F6F1E1"/>
<path d="M1353.54 74.976L1349.75 77.114L1343.15 77.884L1343.14 75.252L1349.08 73.892L1347.3 74.349L1346.68 72.166L1350.86 71.649L1353.54 74.976Z" fill="#AA8B7E"/>
<path d="M1362.21 57.281L1366.61 68.498L1365.77 71.451L1353.54 74.966L1350.81 71.651L1361.51 67.521L1359.61 60.553L1362.21 57.281V57.281Z" fill="#F6F1E1"/>
<path d="M1355.41 88.057L1359.81 103.319L1368.3 100.379L1361.67 85.592L1355.41 88.057H1355.41ZM1322.3 86.491L1319.21 101.414L1310.64 99.457L1315.72 84.745L1322.3 86.491Z" fill="#669944"/>
<path d="M1317.46 95.699L1316.57 98.874L1310.64 99.457L1310.79 95.342L1317.46 95.699ZM1367.97 105.95L1367.21 112.02L1362.52 120.139L1356.93 116.522L1360.41 108.654L1359.42 111.058L1356.44 109.918L1360.22 103.179L1367.97 105.95V105.95Z" fill="#72594B"/>
<path d="M1460.34 78.078L1466.44 75.68L1479.68 75.164L1477.17 64.582L1461.06 64.287L1460.34 78.077V78.078Z" fill="#E4E2DC"/>
<path d="M1461.54 75.6071L1464.78 73.4451L1467.14 66.7581L1472.59 68.3111L1474.32 72.5611L1478.05 74.4281L1475.69 82.1951L1464.58 82.4911L1461.54 75.6071V75.6071Z" fill="#CEAB97"/>
<path d="M1479.03 196.548L1480.11 204.416L1471.17 204.219L1470.58 195.763L1479.03 196.548Z" fill="#2A2B2A"/>
<path d="M1470.78 148.96L1471.96 208.545L1462.83 207.169L1457.03 148.763" fill="#E1C5B5"/>
<path d="M1470.58 127.917L1470.78 153.087L1471.71 196.058L1479.03 196.548L1481.98 152.818L1470.58 127.918L1470.58 127.917Z" fill="#CEAB97"/>
<path d="M1489.15 77.376L1478.09 74.39L1475.2 81.506L1464.98 81.802L1461.54 75.46L1451.13 79.985L1456.48 88.873L1456.11 104.113L1450.77 165.274L1488.67 165.569L1483.74 104.749L1484.63 88.451L1489.15 77.377V77.376Z" fill="#669944"/>
<path d="M1488.75 121.786L1488.83 220H1494.16L1494.18 119.233L1488.75 121.786ZM1446.18 220H1451.51L1451.53 123.6L1446.1 120.146L1446.18 220Z" fill="#5C5E5F"/>
<path d="M1448.86 140.876V135.542L1492.68 135.472L1493.59 140.898L1448.86 140.876V140.876Z" fill="#5C5E5F"/>
<path d="M1484.5 88.8731L1489.58 117.353L1494.97 116.524L1489.16 77.3781L1484.5 88.8721V88.8731Z" fill="#E1C5B5"/>
<path d="M1494.97 116.402L1495.88 121.846L1492.94 129.972L1489.73 128.47L1491.74 121.247L1491.51 123.577L1488.75 121.759L1489.6 117.314L1494.97 116.402V116.402Z" fill="#E1C5B5"/>
<path d="M1461.31 217.492L1464.63 220H1470.68L1472.23 208.569L1462.89 207.119L1461.31 217.492Z" fill="#2A2B2A"/>
<path d="M1467.02 71.523H1471.93L1477.22 64.727L1476.27 50.191L1466.84 48.616L1460.98 50.946L1461.17 64.727L1467.02 71.523H1467.02ZM1445.37 115.78L1444.12 122.653L1445.93 131.603L1449.2 129.769L1448.26 122.072L1448.48 124.406L1451.52 123.65L1450.29 118.427L1445.37 115.78H1445.37Z" fill="#E1C5B5"/>
<path d="M1456.4 88.396L1450.29 118.472L1445.14 117.018L1451.16 80.141L1456.4 88.396V88.396Z" fill="#E1C5B5"/>
<path d="M1468.44 44.317L1479.34 47.757L1485.32 77.23L1479.16 83.793L1479.23 76.713L1478.84 74.623L1476.95 65.061L1474.58 52.995L1468.1 50.35L1468.44 44.317Z" fill="#E4E2DC"/>
<path d="M1468.21 50.35L1461.83 52.746L1461.08 80.935L1455.69 79.984L1456.75 49.608L1468.6 44.21L1468.21 50.35Z" fill="#E4E2DC"/>
<path d="M1635.45 202.855H1630.08L1620.31 129.935L1624.57 121.198L1635.45 202.855V202.855Z" fill="#F4F2ED"/>
<path d="M1626.94 179.54L1632.27 178.904L1635.45 202.855H1630.08L1626.94 179.539V179.54Z" fill="#AE2025"/>
<path d="M1612.56 76.904L1608.96 74.505L1606.34 67.089L1600.31 68.813L1598.39 73.523L1594.24 75.596L1603.01 94.754L1612.56 76.904H1612.56ZM1624.96 122.18L1626.64 129.11L1625.3 138.142L1621.94 136.482L1622.47 128.747L1622.38 131.089L1619.31 130.494L1621.57 124.666L1624.96 122.18V122.18Z" fill="#72594B"/>
<path d="M1595.46 195.913L1594.38 203.781L1602.05 203.584L1602.65 195.128L1595.46 195.913ZM1600.99 207.934L1602.54 219.365H1608.59L1609.48 216.857L1607.9 206.486L1600.99 207.934H1600.99Z" fill="#F4F2ED"/>
<path d="M1613.8 86.3799L1621.53 125.192L1625.31 123.536L1618.23 80.5859L1613.8 86.3789V86.3799ZM1602.44 155.951L1601.26 207.908L1607.85 206.533L1613.66 155.755" fill="#72594B"/>
<path d="M1602.65 134.91L1602.44 152.453L1601.5 195.423L1595.46 195.913L1592.51 152.185L1602.65 134.91Z" fill="#553F37"/>
<path d="M1591.58 83.21L1589.94 125.49L1585.77 125.19L1587.93 78.078L1591.58 83.211L1591.58 83.21Z" fill="#72594B"/>
<path d="M1585.85 123.84L1585.47 129.345L1589.19 137.148L1592.24 135.341L1589.53 128.348L1589.99 130.645L1592.56 128.568L1589.97 124.344L1585.85 123.839V123.84Z" fill="#72594B"/>
<path d="M1587.89 78.02L1595.13 75.032L1598.02 82.148L1608.25 82.444L1611.57 76.251L1618.28 80.626L1613.85 86.475L1613.94 114.986L1618.25 160.818L1589.25 161.114L1592.67 114.907L1591.63 83.329L1587.89 78.019V78.02Z" fill="#FFEECC"/>
<path d="M1614.3 68.348L1611.82 49.351L1602.98 45.007L1602.99 44.853L1594.31 50.251L1592.61 67.926L1594.83 72.053L1611.32 72.688L1614.3 68.348V68.348Z" fill="#2A2B2A"/>
<path d="M1613.94 114.28L1622.46 191.328L1584.55 191.623L1592.66 114.915L1613.94 114.28V114.28Z" fill="#313156"/>
<path d="M1614.18 116.503L1592.47 116.515L1592.61 113.01H1613.96L1614.18 116.503V116.503Z" fill="#2A2B2A"/>
<path d="M1768.42 115.01L1769.73 122.018L1767.92 130.967L1764.65 129.133L1765.59 121.437L1765.37 123.77L1762.33 123.015L1764.89 117.315L1768.42 115.009V115.01Z" fill="#E1C5B5"/>
<path d="M1741.18 195.913L1740.1 203.781L1747.77 203.584L1748.35 195.128L1741.18 195.913V195.913ZM1746.71 207.934L1748.26 219.365H1754.31L1755.18 216.857L1753.61 206.486L1746.71 207.934V207.934Z" fill="#AE1F25"/>
<path d="M1759.41 85.1229L1764.84 117.837L1768.7 116.383L1763.87 79.4709L1759.41 85.1229V85.1229ZM1748.16 148.325L1746.98 207.91L1753.56 206.534L1759.36 148.128" fill="#E1C5B5"/>
<path d="M1748.35 127.282L1748.16 152.452L1747.22 195.423L1741.18 195.913L1738.23 152.183L1748.35 127.283V127.282Z" fill="#CEAB97"/>
<path d="M1737.29 82.007L1735.75 116.636L1731.57 116.334L1733.56 76.807L1737.29 82.007V82.007Z" fill="#E1C5B5"/>
<path d="M1731.56 116.212L1731.19 121.717L1734.9 129.52L1737.95 127.713L1735.26 120.72L1735.7 123.018L1738.27 120.94L1735.69 116.716L1731.56 116.212Z" fill="#E1C5B5"/>
<path d="M1733.61 76.741L1740.85 73.754L1743.74 80.87L1753.97 81.166L1757.4 74.824L1763.99 79.349L1766.29 97.882L1761.71 98.754L1759.57 85.197L1759.02 103.477L1768.16 160.818L1730.27 161.114L1739.02 104.112L1737.34 82.052L1736.55 98.239L1732.55 98.08L1733.61 76.741V76.741Z" fill="#AE1F25"/>
<path d="M1763.2 95.6449L1759.44 48.074L1748.7 43.729L1748.71 43.575L1736.85 48.9729L1735.16 95.2229L1740.55 99.3499L1758.63 99.985L1763.2 95.6449H1763.2Z" fill="#F5F3E9"/>
<path d="M1898.28 69.276L1894.68 66.877L1892.06 59.462L1886.02 61.185L1884.1 65.895L1879.96 67.968L1888.74 87.126L1898.28 69.276V69.276ZM1908.42 115.01L1909.73 122.018L1907.93 130.967L1904.65 129.133L1905.59 121.437L1905.37 123.77L1902.34 123.015L1904.89 117.315L1908.42 115.009V115.01Z" fill="#72594B"/>
<path d="M1881.18 195.913L1880.1 203.781L1887.77 203.584L1888.36 195.128L1881.18 195.913ZM1886.72 207.934L1888.27 219.365H1894.31L1895.19 216.857L1893.62 206.486L1886.72 207.934V207.934Z" fill="#669944"/>
<path d="M1899.42 78.773L1904.84 117.837L1908.7 116.383L1903.88 73.121L1899.42 78.773V78.773ZM1888.17 148.325L1886.99 207.91L1893.58 206.534L1899.37 148.128" fill="#72594B"/>
<path d="M1888.36 127.282L1888.17 152.452L1887.23 195.423L1881.18 195.913L1878.24 152.183L1888.36 127.283V127.282Z" fill="#553F37"/>
<path d="M1877.3 75.657L1875.76 116.636L1871.58 116.334L1873.57 70.457L1877.3 75.657Z" fill="#72594B"/>
<path d="M1871.57 116.212L1871.2 121.717L1874.91 129.52L1877.96 127.713L1875.26 120.72L1875.71 123.018L1878.27 120.94L1875.69 116.716L1871.57 116.212Z" fill="#72594B"/>
<path d="M1873.61 70.3911L1880.85 67.4041L1883.75 74.5201L1893.97 74.8161L1897.4 68.4741L1903.99 72.9991L1899.57 78.8471L1899.02 103.477L1908.17 160.818L1870.27 161.114L1879.02 104.112L1877.35 75.7021L1873.61 70.3921V70.3911Z" fill="#669944"/>
<path d="M1900.03 60.72L1897.54 41.724L1888.7 37.379L1888.71 37.225L1880.03 42.623L1878.34 60.299L1880.56 64.425L1897.04 65.06L1900.03 60.72H1900.03Z" fill="#2A2B2A"/>
<path d="M1899.66 106.653L1908.17 160.818L1870.27 161.114L1878.39 107.287L1899.66 106.652V106.653Z" fill="#E4E2DC"/>
<path d="M1900.03 108.875H1878.25L1878.88 105.382H1899.39L1900.03 108.875Z" fill="#2A2B2A"/>
</svg>
