<svg xmlns="http://www.w3.org/2000/svg" viewBox="[object SVGAnimatedRect]" width="320" height="420"><path d="M106.166 23.434l42.017 82.974h6.667l-41.91-82.974M212 23.434l-42.017 82.974h-6.667l41.91-82.974" fill="#2a2b2a" fill-rule="nonzero"></path><path d="M205.11 26.078l38.495.318 6.935 15.012 6.64-.804-10.188-20.65H71.478l-10.187 20.65 6.64.804 6.935-15.012 30.876-.318" fill="#2a2b2a" fill-rule="nonzero"></path><path d="M280.405 188.761l27.147-1.41.268 9.936 5.37-.807-.03-16.839-33.024 3.483.269 5.637z" fill="#f3f2ec" fill-rule="nonzero"></path><path d="M317.218 195.674l-1.075 27.1-19.063 2.683-3.49-26.023 23.628-3.76z" fill="#f3f2ec" fill-rule="nonzero"></path><path d="M312.152 219.254l-10.825 1.54-2.964-17.52 14.212-2.421-.423 18.4z" fill="#c0bdba" fill-rule="nonzero"></path><path d="M39.594 188.761l-27.148-1.41-.266 9.936-5.371-.807.028-16.839 33.026 3.483-.27 5.637zM2.78 195.674l1.076 27.1 19.063 2.683 3.491-26.023-23.63-3.76z" fill="#f3f2ec" fill-rule="nonzero"></path><path d="M7.991 219.678l10.859 1.476 2.583-17.865-13.547-2.33.105 18.72z" fill="#c0bdba" fill-rule="nonzero"></path><path d="M232.768 420h-14.542l.296-31.002 16.712.268L232.768 420zM88.616 420h14.543l.021-28.144-16.712.268L88.616 420z" fill="#5c5e5f" fill-rule="nonzero"></path><path d="M43.869 387.742l.684 14.974 231.747.292.81-15.266-115.558-22.862-117.683 22.862z" fill="#2a2b2a" fill-rule="nonzero"></path><path d="M276.366 346.161l-4.478 3.862-216.394.055-6.023-4.195 226.895.278z" fill-rule="nonzero"></path><path d="M190.526 123.37l-7.206-16.934h-48.2l-5.935 16.934h61.34z" fill="#f3f2ec" fill-rule="nonzero"></path><path d="M33.07 149.192l6.526 116.1 241.333-.318 6.352-115.993-26.353-26.67-200.763-.424-27.095 27.305z" fill="#88ba6a" fill-rule="nonzero"></path><path d="M286.17 175.808l-251.937-.317 9.596 212.23 117.047-17.782 116.195 17.783 9.098-211.914z" fill="#e3e1db" fill-rule="nonzero"></path><path d="M94.049 328.015l3.971 11.941-23.737.046 3.864-12.039 15.902.052zM238.826 328.015l3.972 11.941-23.738.046 3.865-12.039 15.901.052z" fill="#ad2125" fill-rule="nonzero"></path><path d="M162.98 185.91l77.205-.1 7.62 68.97-84.621-.177-.205-68.693zM156.843 185.91l-77.525-.1-7.62 68.97 84.94-.177.205-68.693z" fill="#313156" fill-rule="nonzero"></path><path d="M150.481 185.958l-77.734 59.126 6.572-59.378 71.162.252zM156.713 234.69l-12.157 11.62-1.585 8.32 13.676.026.066-19.965zM163.18 254.668l84.73.138-7.64-69.015-32.364.058-44.8 42.73.074 26.089z" fill="#0d1824" fill-rule="nonzero" opacity=".3"></path><path d="M156.728 232.936l-21.657 21.686 7.898-.019 13.69-13.739.07-7.928zM163.096 234.405l48.392-48.565-7.744.015-40.631 40.687-.017 7.863z" fill="#494a72" fill-rule="nonzero"></path><path d="M175.944 301.161c0 8.885-7.203 16.087-16.088 16.087-8.883 0-16.085-7.202-16.085-16.087 0-8.883 7.202-16.086 16.085-16.086 8.885 0 16.088 7.203 16.088 16.086" fill="#2a2b2a" fill-rule="nonzero"></path><path d="M54.982 157.236a6.675 6.675 0 11-13.347 0 6.676 6.676 0 016.675-6.673 6.676 6.676 0 016.672 6.673M278.502 157.236a6.675 6.675 0 11-13.347 0 6.676 6.676 0 016.675-6.673 6.676 6.676 0 016.672 6.673" fill="#ad2125" fill-rule="nonzero"></path></svg>