<svg xmlns="http://www.w3.org/2000/svg" viewBox="[object SVGAnimatedRect]" width="320" height="420"><path d="M107.173 23.116l42.017 82.974h6.667l-41.91-82.974M213.007 23.116l-42.016 82.974h-6.668l41.91-82.974" fill="#2a2b2a" fill-rule="nonzero"></path><path d="M206.116 25.76l38.496.318 6.935 15.012 6.64-.803L248 19.637H72.486l-10.188 20.65 6.64.803 6.935-15.012 30.876-.318" fill="#2a2b2a" fill-rule="nonzero"></path><path d="M280.69 189.067l27.147-1.408.268 9.932 5.37-.804-.029-16.841-33.023 3.486.266 5.635z" fill="#f3f2ec" fill-rule="nonzero"></path><path d="M317.504 195.98l-1.074 27.098-19.063 2.686-3.491-26.024 23.628-3.76zM39.31 189.067l-27.147-1.408-.268 9.932-5.37-.804.028-16.841 33.024 3.486-.266 5.635z" fill="#f3f2ec" fill-rule="nonzero"></path><path d="M2.496 195.98l1.074 27.098 19.063 2.686 3.492-26.024-23.63-3.76z" fill="#f3f2ec" fill-rule="nonzero"></path><path d="M232.347 420h-14.543l-.022-31.32 16.712.269L232.347 420zM87.877 419.682h14.542l.022-28.144-16.712.268 2.148 27.876z" fill="#5c5e5f" fill-rule="nonzero"></path><path d="M43.13 387.425l.684 14.973 231.747.292.81-15.265-115.558-22.863-117.684 22.863z" fill="#2a2b2a" fill-rule="nonzero"></path><path d="M275.627 345.843l-4.478 3.862-216.394.055-6.024-4.195 226.896.278z" fill-rule="nonzero"></path><path d="M189.785 123.052l-7.206-16.934h-48.2l-5.935 16.934h61.341z" fill="#f3f2ec" fill-rule="nonzero"></path><path d="M37.587 264.972l5.541 122.453 117.047-17.782 116.196 17.782 5.106-122.736-243.89.283z" fill="#88ba6a" fill-rule="nonzero"></path><path d="M32.33 148.874l5.256 116.1 243.875-.318 5.08-115.993-26.352-26.67-200.763-.424-27.095 27.305z" fill="#e3e1db" fill-rule="nonzero"></path><path d="M63.021 138.231l.054 31.343 191.7-.466-.406-30.586-191.348-.29z" fill="#2a2b2a" fill-rule="nonzero"></path><path d="M83.888 144.912H74.76l-3.992-.008v19.298l3.857.035.035-8.726 6.625-.135.02-3.757h-6.512l-.014-2.833 9.088-.116.02-3.758z" fill="#ef9c74" fill-rule="nonzero"></path><path d="M93.308 286.847l3.972 11.94-23.738.046 3.865-12.038 15.901.052zM238.086 286.847l3.971 11.94-23.737.046 3.864-12.038 15.902.052z" fill="#ee9b75" fill-rule="nonzero"></path><path d="M245.813 393.92l-3.493-5-168.747-.07-4.7 5.426 176.94-.357z" fill="#5c5e5f" fill-rule="nonzero"></path><path d="M155.573 185.332l-93.187-8.484-13.97 77.615 107.521.139-.364-69.27zM161.923 185.592l94.133-8.745 13.97 77.615-107.899-.177-.204-68.693z" fill="#313156" fill-rule="nonzero"></path><path d="M120.912 182.105l-72.597 72.36 14.071-77.65 58.526 5.29zM256.041 176.801l-4.564.477-71.891 68.714-1.585 8.32 92.03.178-13.99-77.689z" fill="#0d1824" fill-rule="nonzero" opacity=".3"></path><path d="M178 254.284l77.072-77.344-8.534.825-76.435 76.54 7.898-.02z" fill="#494a72" fill-rule="nonzero"></path><path d="M175.204 323.916c0 8.885-7.202 16.087-16.087 16.087-8.883 0-16.086-7.202-16.086-16.087 0-8.884 7.203-16.086 16.086-16.086 8.885 0 16.087 7.202 16.087 16.086" fill="#fec" fill-rule="nonzero"></path></svg>