<svg xmlns="http://www.w3.org/2000/svg" viewBox="[object SVGAnimatedRect]" width="270" height="360"><g fill-rule="nonzero"><path d="M6.208 3.796L4.425 360H19.77L14.17.406l-7.963 3.39z" fill="#e4e2dc"></path><path d="M4.425 360H19.77l-2.504-129.156L4.425 360zM5.737 95.227L14.169.406 6.21 3.808l-.472 91.42z" fill="#c1bebb"></path><path d="M16.02 81.87h31.115l1.27-62.865H14.75l1.27 62.865z" fill="#d8d3cb"></path><path d="M42.901 48.849h-9.128l-3.99-.008-.003 19.298 3.86.035.034-8.726 6.625-.134.02-3.758h-6.513l-.013-2.832 9.089-.117.02-3.758zM28.945 25.515l.036 10.505 10.336.134.035 8.726 3.859-.035-.002-19.298h-3.992l-.032 6.715H32.67v-6.715l-3.726-.032z" fill="#313156"></path></g><g fill-rule="nonzero"><path d="M203.61 328.26l28.76 2.478L235.097 360h6.48l-.134-35.206-40.471-3.209 2.639 6.675z" fill="#5c5e5f"></path><path d="M176.04 321.588l62.39 3.048.714-70.929-6.576 3.405-2.194 57.412-54.334 3v4.064z" fill="#ae2025"></path></g><g fill-rule="nonzero"><path d="M250.335 123.78V360h13.336l-2.54-236.22h-10.796zM102.38 85.68L99.84 360h13.335V85.68H102.38z" fill="#5c5e5f"></path><path d="M99.84 360h13.335l-11.663-150.495L99.84 360zM250.335 360h13.336l-13.336-150.495V360z" fill="#2a2b2a"></path><path fill="#c1bebb" d="M113.175 125.05h137.16v181.61h-137.16z"></path><path d="M122.058 135.592v159.28h118.777V135.905l-118.777-.313z" fill="#f5f3e9"></path><path d="M238.97 135.811L122.059 251.674V135.592l116.91.22zM240.835 294.872l.007-96.836-100.044 96.587 100.037.25z" fill="#e7e6de"></path><path d="M144.361 294.899l65.408-65.619 31.066-31.065v-5.484L138.77 294.878l5.592.02z" fill="#d8d3cb"></path></g><path d="M263.25 103.46l2.325 20.32h-15.24L64.28 86.632l.635-13.387L263.25 103.46z" fill="#ae2025" fill-rule="nonzero"></path></svg>