<svg xmlns="http://www.w3.org/2000/svg" viewBox="[object SVGAnimatedRect]" width="270" height="360"><g fill-rule="nonzero"><path d="M250.23 360h15.344L263.791 3.796l-7.963-3.39L250.231 360z" fill="#e4e2dc"></path><path d="M250.23 360h15.346l-12.843-129.156L250.23 360zM264.263 95.227L255.83.406l7.961 3.402.472 91.42z" fill="#c1bebb"></path><path d="M253.98 81.87h-31.116l-1.27-62.865h33.655l-1.27 62.865z" fill="#d8d3cb"></path><path d="M227.13 25.515l.036 10.505 10.336.134.035 8.726 3.858-.035-.001-19.298H237.4l-.032 6.715h-6.513v-6.715l-3.726-.032zM240.823 49.062h-9.128l-3.991-.008-.003 19.299 3.86.035.035-8.727 6.625-.134.02-3.758h-6.514l-.013-2.832 9.09-.117.019-3.758z" fill="#313156"></path></g><g fill-rule="nonzero"><path d="M28.558 324.795L28.424 360h7.75l1.455-29.263 28.761-2.477 2.64-6.675-40.472 3.21z" fill="#5c5e5f"></path><path d="M93.96 321.588l-62.39 3.048-.714-70.93 6.576 3.406 2.194 57.412 54.333 3v4.064z" fill="#ae2025"></path></g><g fill-rule="nonzero"><path d="M8.87 123.78L6.33 360h13.334V123.78H8.87zM156.824 85.68V360h13.335l-2.54-274.32h-10.795z" fill="#5c5e5f"></path><path d="M156.824 360h13.335l-1.672-150.495L156.824 360zM6.33 360h13.334V209.505L6.33 360z" fill="#2a2b2a"></path><path fill="#c1bebb" d="M19.664 125.05h137.16v181.61H19.664z"></path><path d="M28.547 135.592v159.28h118.777V135.904l-118.777-.312z" fill="#f5f3e9"></path><path d="M145.458 135.811L28.548 251.674V135.592l116.91.22zM147.324 294.872l.006-96.836-100.043 96.587 100.037.25z" fill="#e7e6de"></path><path d="M50.85 294.899l65.408-65.618 31.066-31.066v-5.484L45.258 294.878l5.592.02z" fill="#d8d3cb"></path></g><path d="M6.75 103.46l-2.326 20.32h15.24L205.72 86.632l-.635-13.387L6.75 103.46z" fill="#ae2025" fill-rule="nonzero"></path></svg>