<svg xmlns="http://www.w3.org/2000/svg" viewBox="[object SVGAnimatedRect]" width="270" height="630"><path d="M198.968 108.445l-49.108-1.585-23.707-36.828-27.093 44.873-76.2-5.928 42.333-25.4-27.94-49.952L62.23 14.57l77.47-8.04 25.4 45.72 34.713 3.386-.845 52.808z" fill="#694" fill-rule="nonzero"></path><path d="M247.652 92.04l-2.54 40.64 15.447 14.235-17.141 4.338-4.656 27.412-43.925-1.27-24.765-54.293L197.694 90.4l-4.124-53.072 18.522.95 12.7 40.64 22.86 13.123z" fill="#36803f" fill-rule="nonzero"></path><path d="M197.06 18.645l-10.985 4.268-7.136 2.775-34.582 13.44-10.16 28.365 39.37-12.7 23.916 17.356-.424-53.504z" fill="#694" fill-rule="nonzero"></path><path d="M123.646 70.028L135.5 59.445l-9.102-5.927.635-14.393-22.543 5.185-3.28 14.712 22.436 11.006z" fill="#88ba6a" fill-rule="nonzero"></path><path d="M103.855 129.4L58.42 144.54 0 134.379l17.78-11.007-12.276-16.514.423-15.66 42.942-18.647 1.085-21.15 20.319 11.858 33.582 66.141zM190.923 61.084l3.592 29.69 15.666-3.442-17.78 26.247 40.64 12.7 6.031-12.01-12.805-9.157 25.4-12.7-2.435-14.972-22.118-1.961-6.773-38.947-29.418 24.552z" fill="#694" fill-rule="nonzero"></path><path d="M91.017 55.213l50.376 19.05 25.4-.423 17.78 38.946L45.72 120.83l7.44-31.12 51.648-7.617 2.295-6.56-16.086-20.32z" fill="#36803f" fill-rule="nonzero"></path><path d="M124.038 347.735l-61.384 42.333-27.94-13.546 7.197-5.504-26.67-12.7-1.27-13.97 42.333-24.976" fill="#694" fill-rule="nonzero"></path><path d="M83.823 340.115l47.413 69.427-1.874 21.589-68.399-87.629 22.86-3.387z" fill="#7c705a" fill-rule="nonzero"></path><path d="M64.665 348.58l25.4.318 38.468 56.734 6.667 13.548-70.535-70.6z" fill="#645849" fill-rule="nonzero"></path><path d="M30.483 305.402l22.86 43.18 80.433 2.54-14.393-56.727-25.4-6.773-63.5 17.78z" fill="#36803f" fill-rule="nonzero"></path><path d="M100.755 285.082l-39.793 27.093-39.159 3.386-.92-10.356-18.34-3.19-.425-7.41 18.204-3.597L8.47 258.835l64.346-27.94 27.94 54.187z" fill="#694" fill-rule="nonzero"></path><path d="M190.078 325.298l-49.53 19.473-20.32-28.787 23.283-8.043 7.197 11.43 30.48-13.547 8.89 19.474z" fill="#36803f" fill-rule="nonzero"></path><path d="M97.37 344.348l79.586-33.444-13.547-57.573-55.88 36.831 23.706 12.7-33.655 20.956 2.963 10.584-3.174 9.946z" fill="#694" fill-rule="nonzero"></path><path d="M207.435 266.03l-55.033 8.467-23.707-36.83-27.093 44.874-76.2-5.927 42.333-25.4-27.94-49.953 102.447-27.093 25.4 45.72 34.713 3.386 5.08 42.757z" fill="#88ba6a" fill-rule="nonzero"></path><path d="M194.099 344.561l54.715 1.74-21.271-27.412 35.559-4.338-17.779-41.382-45.721-86.888.635 71.755-27.623 32.703L194.1 344.56z" fill="#36803f" fill-rule="nonzero"></path><path d="M135.784 442.609l35.56-28.934 42.863-155.851 8.255-10.795L179.65 418.07l-44.818 44.859.952-20.32z" fill="#7c705a" fill-rule="nonzero"></path><path d="M130.225 212.956l-2.994 110.126 2.017 127.882-3.12 119.029L125.01 630h23.243l-3.833-85.468-4.494-111.91 4.842-90.502-3.476-135.703-11.068 6.54z" fill="#7c705a" fill-rule="nonzero"></path><path d="M128.745 468.869l-3.069 128.536 15.239-140.548" fill="#968974" fill-rule="nonzero"></path><path d="M140.385 424.34l-11.866-11.787-1.256-85.447 17.15-5.377.31 28.132-4.338 74.479z" fill="#645849" fill-rule="nonzero"></path><path d="M190.185 321.43l48.576 3.234-3.551-10.654-9.884-3.993-3.816-11.446-27.94-2.54 11.538-17.296-18.837-18.417-31.646 34.02 35.56 27.093z" fill="#88ba6a" fill-rule="nonzero"></path><path d="M200.026 228.72v30.48l14.605-4.597-17.145 26.612 43.603 9.794-3.81-9.1-5.927-9.161 25.4-12.7-1.27-10.525-23.283-6.408-6.773-38.947-25.4 24.553z" fill="#694" fill-rule="nonzero"></path><path d="M199.602 186.281l-52.703 20.484-10.16 28.364 39.37-12.7 23.917 17.356-.424-53.504z" fill="#694" fill-rule="nonzero"></path><path d="M93.56 222.85l50.375 19.05 25.4-.423 17.78 45.935-138.853 8.045 24.553-27.735 32.174-1.27 4.656-23.283-16.086-20.32z" fill="#36803f" fill-rule="nonzero"></path><path d="M123.875 333.35l21.134-9.003-1.343-35.022-17.935-1.065-34.29-15.24-2.539 6.558 34.973 53.772z" fill="#694" fill-rule="nonzero"></path><path d="M85.516 310.058l38.946-2.54-4.233 20.743H71.97l13.547-18.203z" fill="#88ba6a" fill-rule="nonzero"></path><path d="M125.676 200.228l3.972 11.94-23.738.046-.287-12.012 20.053.026z" fill="#694" fill-rule="nonzero"></path><path d="M149.203 283.416l3.305 30.353-23.74.045.382-30.425 20.053.027zM235.16 217.772l-25.186 44.662-78.108 1.058 14.393-56.727 25.4-6.773 63.5 17.78z" fill="#36803f" fill-rule="nonzero"></path><path d="M164.888 197.452l39.792 27.093 58.42-10.16-17.78-11.007-4.442-22.437 16.295-9.736-64.345-27.94-27.94 54.187zM168.273 256.718l-5.078 7.834-74.509-41.278 13.547-57.573 55.88 36.831-23.705 12.7 33.865 41.486z" fill="#694" fill-rule="nonzero"></path><path d="M68.263 257.401l-51.435 1.27L38.1 231.259l-35.56-4.338 17.78-41.382 36.197-68.31.212-8.466 9.312-.798-.635 62.441 27.622 32.703L68.263 257.4z" fill="#36803f" fill-rule="nonzero"></path><path d="M75.458 233.8l-51.433 3.973.635-9.207 15.442-5.534 4.03-12.091 27.94-2.54-11.538-17.296 18.838-18.417 30.908 37.463-14.393.423v16.087l-20.43 7.14z" fill="#694" fill-rule="nonzero"></path><path d="M65.617 141.09l.425 29.69 7.016 9.103-4.901 13.702-40.64 12.7-6.032-12.01 12.806-9.157-25.4-12.7 2.434-14.972 22.119-1.961 6.773-38.947 25.4 24.553zM143.296 245.288l-23.706-10.16 5.926-33.444 51.224-9.736-33.444 53.34z" fill="#694" fill-rule="nonzero"></path><path d="M86.573 256.083l-36.62 12.066 5.928 19.05 52.917-20.956-22.225-10.16z" fill="#36803f" fill-rule="nonzero"></path><path d="M58.208 178.4l55.032 8.467 23.708-36.83 27.092 44.874 76.2-5.927-42.332-25.4 27.94-49.953L123.4 86.538 98 132.258l-31.504 10.16-8.288 35.983z" fill="#694" fill-rule="nonzero"></path><path d="M62.263 121.145l14.762-18.225 32.228 16.003 9.49.212 10.16 28.364-39.37-12.7-17.11 17.779-10.16-31.433z" fill="#88ba6a" fill-rule="nonzero"></path><path d="M172.083 135.22l-50.375 19.05-25.4-.423-17.78 38.945 138.852 8.045-24.552-20.745-32.175-1.27-4.655-23.283 16.085-20.32z" fill="#36803f" fill-rule="nonzero"></path><path d="M49.55 146.047l.169 12.584 22.436-7.749-3.672-11.441-18.933 6.606z" fill="#88ba6a" fill-rule="nonzero"></path><path d="M72.423 87.808l-8.255-21.59 11.43.635 12.7 17.78-15.875 3.175z" fill="#36803f" fill-rule="nonzero"></path><path d="M163.863 177.978l20.955.635 1.905-13.97-11.43-14.605-11.43 27.94z" fill="#88ba6a" fill-rule="nonzero"></path></svg>