<svg width="120" height="120" viewBox="0 0 120 120" fill="none" xmlns="http://www.w3.org/2000/svg">
<path d="M21.604 77.611V82.31L60.212 100.09L98.82 82.31V77.611L60.212 95.518L21.604 77.611Z" fill="white"/>
<path d="M21.604 68.721V73.42L60.212 91.2L98.82 73.42V68.721L60.212 86.628L21.604 68.721ZM36.844 49.036C38.241 49.036 39.765 48.782 41.162 48.401L44.591 57.672L41.797 64.276H35.828V68.594L53.608 67.197V64.149H47.512L49.29 60.212H73.42L72.15 64.022H69.102V67.324H76.976L83.453 49.036H83.58C92.216 49.036 99.201 42.051 99.201 33.415C99.201 24.779 92.216 17.794 83.58 17.794C74.944 17.794 67.959 24.779 67.959 33.415C67.959 39.765 71.769 45.48 77.611 47.893L75.706 52.973L63.26 36.463V31.764H52.338C51.449 23.128 43.702 16.905 35.066 17.794C26.43 18.683 20.207 26.43 21.096 35.066C22.112 43.067 28.843 49.036 36.844 49.036V49.036ZM73.039 33.415C73.0356 32.0298 73.3059 30.6575 73.8344 29.3771C74.3629 28.0966 75.1392 26.9332 76.1187 25.9537C77.0982 24.9742 78.2616 24.1979 79.5421 23.6694C80.8225 23.1409 82.1948 22.8706 83.58 22.874C84.9652 22.8706 86.3375 23.1409 87.6179 23.6694C88.8984 24.1979 90.0618 24.9742 91.0413 25.9537C92.0208 26.9332 92.7971 28.0966 93.3256 29.3771C93.8541 30.6575 94.1244 32.0298 94.121 33.415C94.121 38.495 90.438 42.94 85.358 43.829L89.676 31.764H83.58L79.389 43.067C75.579 41.416 73.039 37.606 73.039 33.415V33.415ZM72.531 55.005H51.83L59.196 38.876L72.531 55.005ZM47.893 50.306L46.115 45.988C49.29 43.575 51.449 40.146 52.084 36.209H54.624L47.893 50.306V50.306ZM42.305 36.209H46.877C46.369 37.987 45.48 39.638 44.21 40.908L42.305 36.209ZM36.844 23.001C41.924 23.001 46.369 26.684 47.258 31.764H36.717V36.463L39.384 43.575C33.796 44.972 28.081 41.543 26.684 35.955C25.287 30.367 28.716 24.652 34.304 23.255C35.066 23.001 35.955 22.874 36.844 23.001Z" fill="white"/>
</svg>
