<svg width="120" height="120" viewBox="0 0 120 120" fill="none" xmlns="http://www.w3.org/2000/svg">
<path d="M98.608 40.188V35.489L60 17.709L21.392 35.489V40.188L60 22.281L98.608 40.188Z" fill="white"/>
<path d="M98.608 49.078V44.379L60 26.599L21.392 44.379V49.078L60 31.171L98.608 49.078ZM83.368 68.763C81.971 68.763 80.447 69.017 79.05 69.398L75.621 60.127L78.415 53.523H84.384V49.205L66.604 50.602V53.65H72.7L70.922 57.587H46.792L48.062 53.777H51.11V50.475H43.236L36.759 68.763H36.632C27.996 68.763 21.011 75.748 21.011 84.384C21.011 93.02 27.996 100.005 36.632 100.005C45.268 100.005 52.253 93.02 52.253 84.384C52.253 78.034 48.443 72.319 42.601 69.906L44.506 64.826L56.952 81.336V86.035H67.874C68.763 94.671 76.51 100.894 85.146 100.005C93.782 99.116 100.005 91.369 99.116 82.733C98.1 74.732 91.369 68.763 83.368 68.763V68.763ZM47.173 84.384C47.1764 85.7692 46.9061 87.1415 46.3776 88.4219C45.8491 89.7024 45.0728 90.8658 44.0932 91.8453C43.1137 92.8248 41.9503 93.6011 40.6699 94.1296C39.3895 94.6581 38.0172 94.9284 36.632 94.925C35.2468 94.9284 33.8745 94.6581 32.5941 94.1296C31.3136 93.6011 30.1502 92.8248 29.1707 91.8453C28.1912 90.8658 27.4149 89.7024 26.8864 88.4219C26.3579 87.1415 26.0876 85.7692 26.091 84.384C26.091 79.304 29.774 74.859 34.854 73.97L30.536 86.035H36.632L40.823 74.732C44.633 76.383 47.173 80.193 47.173 84.384V84.384ZM47.681 62.794H68.382L61.016 78.923L47.681 62.794ZM72.319 67.493L74.097 71.811C70.922 74.224 68.763 77.653 68.128 81.59H65.588L72.319 67.493ZM77.907 81.59H73.335C73.843 79.812 74.732 78.161 76.002 76.891L77.907 81.59ZM83.368 94.798C78.288 94.798 73.843 91.115 72.954 86.035H83.495V81.336L80.828 74.224C86.416 72.827 92.131 76.256 93.528 81.844C94.925 87.432 91.496 93.147 85.908 94.544C85.146 94.798 84.257 94.925 83.368 94.798V94.798Z" fill="white"/>
</svg>
